<?xml version="1.0" encoding="utf-8"?>
<!-- Generator: Adobe Illustrator 21.1.0, SVG Export Plug-In . SVG Version: 6.00 Build 0)  -->
<svg version="1.1" id="Layer_1" xmlns="http://www.w3.org/2000/svg" xmlns:xlink="http://www.w3.org/1999/xlink" x="0px" y="0px"
	 viewBox="0 0 40 40" style="enable-background:new 0 0 40 40;" xml:space="preserve">
<style type="text/css">
	.st0{fill:#FAFAFA;}
	.st1{fill:#425404;}
</style>
<g id="group-389" transform="translate(1899 -11024)">
	<g id="group-104" transform="translate(24 435)">
		<g transform="matrix(1, 0, 0, 1, -1923, 10589)">
			<circle id="ellipse-2" class="st0" cx="20" cy="20" r="20"/>
		</g>
	</g>
	<g id="group-388" transform="translate(26.667 440.333)">
		<path id="path" class="st1" d="M-1892.1,10614.9h-0.5v-11.1h3.1l-13.6-12l-13.6,12h3.1v11.1h-1.1v-10h-4.9l8.1-7.2v-1.8
			c0.1-2.9-2.2-5.4-5.1-5.6c-2.9,0.2-5.2,2.6-5.1,5.6v19h-0.4c0.4,0.6,0.8,1.2,1.3,1.8c7.5,0.4,28.7,0,28.7,0L-1892.1,10614.9z
			 M-1902.7,10614.9l2.9-3l3,3H-1902.7z M-1896.2,10614.3l-3-3l3-3.1V10614.3z M-1897.1,10607.9l-2.6,2.7l-2.7-2.7H-1897.1z
			 M-1903.1,10608.5l2.7,2.8l-2.7,2.9L-1903.1,10608.5z M-1911.5,10605.6h5.9v3.7h-5.9V10605.6z"/>
	</g>
</g>
</svg>
