<?xml version="1.0" encoding="utf-8"?>
<!-- Generator: Adobe Illustrator 21.1.0, SVG Export Plug-In . SVG Version: 6.00 Build 0)  -->
<svg version="1.1" id="Layer_1" xmlns="http://www.w3.org/2000/svg" xmlns:xlink="http://www.w3.org/1999/xlink" x="0px" y="0px"
	 viewBox="0 0 40 40" style="enable-background:new 0 0 40 40;" xml:space="preserve">
<style type="text/css">
	.st0{fill:#FAFAFA;}
	.st1{fill:#425404;}
	.st2{fill:#FFFFFF;}
</style>
<g id="group-389" transform="translate(1899 -10904)">
	<g id="group-104" transform="translate(24 435)">
		<g transform="matrix(1, 0, 0, 1, -1923, 10469)">
			<circle id="ellipse-2" class="st0" cx="19.9" cy="19.9" r="19.9"/>
		</g>
	</g>
	<rect id="Rectangle_637" x="-1894" y="10912.1" class="st1" width="29.9" height="23"/>
	<rect id="Rectangle_638" x="-1889" y="10908.2" class="st1" width="19.9" height="2.7"/>
	<rect id="Rectangle_639" x="-1892.8" y="10914.6" class="st2" width="27.4" height="18"/>
	<rect id="Rectangle_640" x="-1891.5" y="10915.9" class="st1" width="12.5" height="1.8"/>
	<rect id="Rectangle_641" x="-1891.5" y="10919.6" class="st1" width="2.9" height="2.1"/>
	<rect id="Rectangle_642" x="-1891.5" y="10925.5" class="st1" width="2.9" height="2.1"/>
	<rect id="Rectangle_643" x="-1891.5" y="10922.5" class="st1" width="2.9" height="2.1"/>
	<rect id="Rectangle_644" x="-1891.5" y="10928.4" class="st1" width="2.9" height="2.1"/>
	<rect id="Rectangle_645" x="-1882.8" y="10919.6" class="st1" width="2.9" height="2.1"/>
	<rect id="Rectangle_646" x="-1882.8" y="10925.5" class="st1" width="2.9" height="2.1"/>
	<rect id="Rectangle_647" x="-1882.8" y="10922.5" class="st1" width="2.9" height="2.1"/>
	<rect id="Rectangle_648" x="-1882.8" y="10928.4" class="st1" width="2.9" height="2.1"/>
	<rect id="Rectangle_649" x="-1874" y="10919.6" class="st1" width="2.9" height="2.1"/>
	<rect id="Rectangle_650" x="-1874" y="10925.5" class="st1" width="2.9" height="2.1"/>
	<rect id="Rectangle_651" x="-1874" y="10922.5" class="st1" width="2.9" height="2.1"/>
	<rect id="Rectangle_652" x="-1874" y="10928.4" class="st1" width="2.9" height="2.1"/>
	<rect id="Rectangle_653" x="-1887.1" y="10919.6" class="st1" width="2.9" height="2.1"/>
	<rect id="Rectangle_654" x="-1887.1" y="10925.5" class="st1" width="2.9" height="2.1"/>
	<rect id="Rectangle_655" x="-1887.1" y="10922.5" class="st1" width="2.9" height="2.1"/>
	<rect id="Rectangle_656" x="-1887.1" y="10928.4" class="st1" width="2.9" height="2.1"/>
	<rect id="Rectangle_657" x="-1878.4" y="10919.6" class="st1" width="2.9" height="2.1"/>
	<rect id="Rectangle_658" x="-1878.4" y="10925.5" class="st1" width="2.9" height="2.1"/>
	<rect id="Rectangle_659" x="-1878.4" y="10922.5" class="st1" width="2.9" height="2.1"/>
	<rect id="Rectangle_660" x="-1878.4" y="10928.4" class="st1" width="2.9" height="2.1"/>
	<rect id="Rectangle_661" x="-1869.6" y="10919.6" class="st1" width="2.9" height="2.1"/>
	<rect id="Rectangle_662" x="-1869.6" y="10925.5" class="st1" width="2.9" height="2.1"/>
	<rect id="Rectangle_663" x="-1869.6" y="10922.5" class="st1" width="2.9" height="2.1"/>
</g>
</svg>
