<?xml version="1.0" encoding="utf-8"?>
<!-- Generator: Adobe Illustrator 21.1.0, SVG Export Plug-In . SVG Version: 6.00 Build 0)  -->
<svg version="1.1" id="Layer_1" xmlns="http://www.w3.org/2000/svg" xmlns:xlink="http://www.w3.org/1999/xlink" x="0px" y="0px"
	 viewBox="0 0 40 40" style="enable-background:new 0 0 40 40;" xml:space="preserve">
<style type="text/css">
	.st0{fill:#FAFAFA;}
	.st1{fill:#435521;}
</style>
<g id="group-389" transform="translate(1379 -10793.5)">
	<g id="group-104" transform="translate(24 435)">
		<g transform="matrix(1, 0, 0, 1, -1403, 10358.5)">
			<circle id="ellipse-2" class="st0" cx="20" cy="20" r="20"/>
		</g>
	</g>
	<g id="Group_2812" transform="translate(24 444.889)">
		<path id="Path_5177" class="st1" d="M-1387.9,10368.9l-8.4-8v4.6h-6.7l0.2,7.3l6.7-0.2v4.6L-1387.9,10368.9z"/>
		<g id="Group_2811" transform="translate(12.94 0.168)">
			<path id="Path_5178" class="st1" d="M-1378.6,10362.9l-10.3,5.9l-10.5-5.9c-0.3,0.3-0.4,0.7-0.4,1v10.9c0,0.9,0.7,1.7,1.6,1.7
				c0,0,0,0,0,0h18.5c0.9,0,1.7-0.7,1.7-1.6c0,0,0,0,0,0v-10.9C-1378.1,10363.6-1378.4,10363.2-1378.6,10362.9z"/>
			<path id="Path_5179" class="st1" d="M-1378.6,10361.6c-0.2-0.2-0.2-0.2-0.4-0.2l-19.3-0.4c-0.4,0-0.6,0.2-1,0.4l10.3,5.9
				L-1378.6,10361.6z"/>
		</g>
	</g>
</g>
</svg>
