<?xml version="1.0" encoding="utf-8"?>
<!-- Generator: Adobe Illustrator 21.1.0, SVG Export Plug-In . SVG Version: 6.00 Build 0)  -->
<svg version="1.1" id="Layer_1" xmlns="http://www.w3.org/2000/svg" xmlns:xlink="http://www.w3.org/1999/xlink" x="0px" y="0px"
	 viewBox="0 0 40 40" style="enable-background:new 0 0 40 40;" xml:space="preserve">
<style type="text/css">
	.st0{fill:#FAFAFA;}
	.st1{fill:#425404;}
</style>
<g id="group-386" transform="translate(1379 -10866.999)">
	<g id="group-104" transform="translate(24 277.999)">
		<g transform="matrix(1, 0, 0, 1, -1403, 10589)">
			<circle id="ellipse-2" class="st0" cx="20" cy="20" r="20"/>
		</g>
	</g>
	<g id="group-391" transform="translate(29.333 281)">
		<path id="path" class="st1" d="M-1401.6,10621c1.3,1,2.7,2,4.2,2.8v-9.3h1.1v-5.6c-1.4,0.6-2.7,1.2-3.9,2
			C-1402.3,10612.5-1402.3,10618.3-1401.6,10621z"/>
		<path id="path-2" class="st1" d="M-1376.1,10610.8c-1.4-0.8-2.9-1.6-4.5-2.2v5.9h1.1l0.2,9.3c1.6-0.9,3.1-1.9,4.4-3.1
			C-1374,10617.5-1374.2,10612.5-1376.1,10610.8z"/>
		<circle id="ellipse-3" class="st1" cx="-1395.7" cy="10615.9" r="0.4"/>
		<circle id="ellipse-4" class="st1" cx="-1381.2" cy="10615.9" r="0.4"/>
		<path id="rectangle" class="st1" d="M-1394,10618.7h11.1v6.5c-3.6,1.1-7.5,1.1-11.1-0.1C-1394,10624.1-1394,10618.7-1394,10618.7z
			"/>
		<path id="path-3" class="st1" d="M-1381.8,10598.5c0-0.3,0-0.5,0-0.8c-2.2,0.2-4.4,0.3-6.6,0.3c-2.2,0-4.4-0.1-6.6-0.3
			c0,0.3,0,0.5,0,0.8c-0.1,2.6,0.9,5.2,2.6,7.2l-0.5,2l-0.1,0c-0.5,0.2-1.1,0.4-2,0.8v6.2h1.1v1h11.1v-1h1.1v-6.3h0
			c-0.8-0.3-1.3-0.5-1.7-0.7l0,0l-0.6-2.1C-1382.6,10603.4-1381.7,10601-1381.8,10598.5z M-1383.7,10607.6l-4.5,2.8l-4.8-2.7
			c0.3-0.6,0.5-1.2,0.7-1.8c2,2.1,5.4,2.2,7.5,0.1c0.1-0.1,0.2-0.2,0.4-0.4C-1384.2,10606.3-1384,10606.9-1383.7,10607.6
			L-1383.7,10607.6z"/>
		<path id="path-4" class="st1" d="M-1377.2,10595.4c0-0.6-2-1.1-4.9-1.4c-0.4-2.4-3.1-4.2-6.3-4.2c-3.2,0-5.9,1.8-6.3,4.3
			c-3,0.3-4.9,0.8-4.9,1.4c0,0.9,5,1.7,11.2,1.7C-1382.3,10597-1377.2,10596.3-1377.2,10595.4z"/>
	</g>
</g>
</svg>
