<?xml version="1.0" encoding="utf-8"?>
<!-- Generator: Adobe Illustrator 21.1.0, SVG Export Plug-In . SVG Version: 6.00 Build 0)  -->
<svg version="1.1" id="Layer_1" xmlns="http://www.w3.org/2000/svg" xmlns:xlink="http://www.w3.org/1999/xlink" x="0px" y="0px"
	 viewBox="0 0 41.3 41.3" style="enable-background:new 0 0 41.3 41.3;" xml:space="preserve">
<style type="text/css">
	.st0{fill:#FFFFFF;}
	.st1{fill:none;}
</style>
<path class="st0" d="M32.9,12.5c-2.1-5-6.9-8.2-12.3-8.2c-7.4,0-13.3,6-13.3,13.3c0,7.4,6,13.3,13.3,13.3c7.4,0,13.3-6,13.3-13.3
	C34,15.8,33.6,14.1,32.9,12.5z M20.6,29.3C14.2,29.3,9,24.1,9,17.6S14.2,6,20.6,6s11.6,5.2,11.6,11.6C32.3,24.1,27.1,29.3,20.6,29.3
	z"/>
<g id="ic_add" transform="translate(502.01 394.168)">
	<path id="plus_sign" class="st0" d="M-475.4-375.7h-5.1v5.1h-1.7v-5.1h-5.1v-1.7h5.1v-5.1h1.7v5.1h5.1
		C-475.4-377.5-475.4-375.7-475.4-375.7z"/>
	<path id="path-3" class="st1" d="M-471.1-366.3h-20.6v-20.6h20.6V-366.3z"/>
</g>
</svg>
