<?xml version="1.0" encoding="utf-8"?>
<!-- Generator: Adobe Illustrator 21.1.0, SVG Export Plug-In . SVG Version: 6.00 Build 0)  -->
<svg version="1.1" id="Layer_1" xmlns="http://www.w3.org/2000/svg" xmlns:xlink="http://www.w3.org/1999/xlink" x="0px" y="0px"
	 viewBox="0 0 40 40" style="enable-background:new 0 0 40 40;" xml:space="preserve">
<style type="text/css">
	.st0{fill:#FFFFFF;}
	.st1{fill:none;}
</style>
<g>
	<path class="st0" d="M38.3,12.5C35.2,5,28,0.2,19.9,0.2C8.8,0.2,0,9.2,0,20.1c0,11,9,19.8,19.9,19.8c11.1,0,19.9-8.9,19.9-19.8
		C40,17.4,39.4,14.9,38.3,12.5z M19.9,37.5c-9.6,0-17.4-7.8-17.4-17.4S10.3,2.8,19.9,2.8s17.4,7.8,17.4,17.3
		C37.4,29.8,29.6,37.5,19.9,37.5z"/>
	<g id="ic_add" transform="translate(502.01 394.168)">
		<path id="plus_sign" class="st0" d="M-473.1-372.8h-7.6v7.6h-2.5v-7.6h-7.6v-2.5h7.6v-7.6h2.5v7.6h7.6
			C-473.1-375.5-473.1-372.8-473.1-372.8z"/>
		<path id="path-3" class="st1" d="M-466.7-358.8h-30.8v-30.7h30.8V-358.8z"/>
	</g>
</g>
</svg>
