<?xml version="1.0" encoding="utf-8"?>
<!-- Generator: Adobe Illustrator 21.1.0, SVG Export Plug-In . SVG Version: 6.00 Build 0)  -->
<svg version="1.1" id="Layer_1" xmlns="http://www.w3.org/2000/svg" xmlns:xlink="http://www.w3.org/1999/xlink" x="0px" y="0px"
	 viewBox="0 0 40 40" style="enable-background:new 0 0 40 40;" xml:space="preserve">
<style type="text/css">
	.st0{fill:#FAFAFA;}
	.st1{fill:#425404;}
</style>
<g id="group-389" transform="translate(1379 -10904)">
	<g id="group-104" transform="translate(24 435)">
		<g transform="matrix(1, 0, 0, 1, -1403, 10469)">
			<circle id="ellipse-2" class="st0" cx="20" cy="20" r="20"/>
		</g>
	</g>
	<g id="group-390" transform="translate(42.304 446.681)">
		<path id="path" class="st1" d="M-1397.4,10477.7c-0.4,0-0.7-0.1-1.1,0c1.7,0.6,2.8,2.4,2.5,4.2c-0.3,2.4,0.5,4,1.6,4.7
			c0-0.1,0-0.3,0-0.5c0-0.3,0-0.6,0.1-0.9c0.2-1,0.5-2,1-3c-0.8-0.8-0.8-2.1-1.6-3.1c-0.1-0.1-0.1-0.1-0.2-0.2
			C-1395.6,10478.2-1396.4,10477.8-1397.4,10477.7z"/>
		<path id="path-2" class="st1" d="M-1388,10479.4c-0.2,0-0.5,0.1-0.7,0.1c-0.5,0.1-0.9,0.3-1.4,0.5c-1,0.4-1.9,1.2-2.5,2.1
			c-0.1,0.1-0.2,0.2-0.2,0.4c-0.5,0.8-0.8,1.8-0.9,2.7c0,0.4-0.1,0.8-0.1,1.2c0,0.2,0,0.4,0,0.4c0.2,0,0.4,0.1,0.6,0.1v5.7
			c-1.4-3.2-4.9-1.2-4.9-1.2c2.5-0.6,4.9,3.3,4.9,3.4h1c0,0,2.4-4,4.9-3.4c0,0-3.5-2.1-4.9,1.2v-5.6c0.4,0,0.7,0,1-0.1
			c2.4-0.7,1.8-4.1,1.9-5.1C-1389.1,10480.8-1388.7,10480-1388,10479.4z"/>
		<path id="path-3" class="st1" d="M-1392.5,10471.9c-1.4,0.1-2.5,1.3-2.4,2.7v3.7c0.2,0.1,0.3,0.3,0.5,0.5c0.7,0.9,0.7,2.2,1.5,3
			c0.7-1,1.7-1.8,2.8-2.2v-5C-1390.1,10473.2-1391.1,10472-1392.5,10471.9C-1392.5,10471.9-1392.5,10471.9-1392.5,10471.9z
			 M-1391.4,10473.2c0.1,0,0.2,0.1,0.2,0.2s-0.1,0.2-0.2,0.2s-0.2-0.1-0.2-0.2c0,0,0,0,0,0
			C-1391.5,10473.2-1391.5,10473.2-1391.4,10473.2C-1391.4,10473.2-1391.4,10473.2-1391.4,10473.2z M-1391.4,10474.2
			c0,0.1-0.1,0.2-0.2,0.2s-0.2-0.1-0.2-0.2s0.1-0.2,0.2-0.2l0,0C-1391.4,10474.1-1391.4,10474.1-1391.4,10474.2
			C-1391.4,10474.2-1391.4,10474.2-1391.4,10474.2z M-1391.7,10472.3c0.1,0,0.2,0.1,0.2,0.1c0,0,0,0,0,0c0,0.1-0.1,0.2-0.2,0.2
			s-0.2-0.1-0.2-0.2c0,0,0,0,0,0C-1391.8,10472.3-1391.8,10472.3-1391.7,10472.3C-1391.7,10472.3-1391.7,10472.3-1391.7,10472.3z
			 M-1392.5,10474.2c0.1,0,0.2,0.1,0.2,0.2s-0.1,0.2-0.2,0.2c-0.1,0-0.2-0.1-0.2-0.2c0,0,0,0,0,0
			C-1392.7,10474.3-1392.6,10474.2-1392.5,10474.2C-1392.5,10474.2-1392.5,10474.2-1392.5,10474.2L-1392.5,10474.2z
			 M-1392.2,10475.5c0,0.1-0.1,0.2-0.2,0.2s-0.2-0.1-0.2-0.2s0.1-0.2,0.2-0.2l0,0C-1392.2,10475.3-1392.2,10475.4-1392.2,10475.5
			L-1392.2,10475.5z M-1392.7,10472.1c0.1,0,0.2,0.1,0.2,0.1c0,0,0,0,0,0c0,0.1-0.1,0.2-0.2,0.2c-0.1,0-0.2-0.1-0.2-0.2c0,0,0,0,0,0
			C-1392.8,10472.2-1392.8,10472.1-1392.7,10472.1L-1392.7,10472.1z M-1393.3,10473.9c0-0.1,0.1-0.2,0.2-0.2s0.2,0.1,0.2,0.2
			s-0.1,0.2-0.2,0.2l0,0C-1393.3,10474.1-1393.3,10474-1393.3,10473.9L-1393.3,10473.9z M-1393.2,10475.9c0,0.1-0.1,0.2-0.1,0.2
			c0,0,0,0,0,0c-0.1,0-0.2-0.1-0.2-0.2c0-0.1,0.1-0.2,0.2-0.2C-1393.3,10475.7-1393.2,10475.8-1393.2,10475.9
			C-1393.2,10475.9-1393.2,10475.9-1393.2,10475.9z M-1393.2,10472.7c0.1,0,0.2,0.1,0.2,0.1c0,0,0,0,0,0c0,0.1-0.1,0.2-0.2,0.2
			s-0.2-0.1-0.2-0.2c0,0,0,0,0,0C-1393.3,10472.7-1393.3,10472.7-1393.2,10472.7L-1393.2,10472.7z M-1393.5,10474.7
			c0.1,0,0.2,0.1,0.2,0.2s-0.1,0.2-0.2,0.2s-0.2-0.1-0.2-0.2l0,0C-1393.7,10474.7-1393.6,10474.7-1393.5,10474.7L-1393.5,10474.7z
			 M-1394.5,10474.2c0.1,0,0.2,0.1,0.2,0.2c0,0.1-0.1,0.2-0.2,0.2s-0.2-0.1-0.2-0.2c0,0,0,0,0,0
			C-1394.6,10474.3-1394.6,10474.2-1394.5,10474.2L-1394.5,10474.2z M-1394.5,10475.1c0.1,0,0.2,0.1,0.2,0.2s-0.1,0.2-0.2,0.2
			s-0.2-0.1-0.2-0.2l0,0C-1394.6,10475.2-1394.6,10475.1-1394.5,10475.1C-1394.5,10475.1-1394.5,10475.1-1394.5,10475.1
			L-1394.5,10475.1z M-1394.5,10477.2c-0.1,0-0.2-0.1-0.2-0.2s0.1-0.2,0.2-0.2s0.2,0.1,0.2,0.2l0,0
			C-1394.3,10477.2-1394.4,10477.2-1394.5,10477.2C-1394.5,10477.2-1394.5,10477.2-1394.5,10477.2L-1394.5,10477.2z
			 M-1394.2,10478.3c-0.1,0-0.2-0.1-0.2-0.2s0.1-0.2,0.2-0.2s0.2,0.1,0.2,0.2l0,0C-1394,10478.2-1394.1,10478.3-1394.2,10478.3
			L-1394.2,10478.3z M-1394,10476.4c-0.1,0-0.2-0.1-0.2-0.2s0.1-0.2,0.2-0.2s0.2,0.1,0.2,0.2l0,0
			C-1393.8,10476.3-1393.9,10476.4-1394,10476.4L-1394,10476.4z M-1394,10473.6c-0.1,0-0.2-0.1-0.2-0.2s0.1-0.2,0.2-0.2
			s0.2,0.1,0.2,0.2c0,0,0,0,0,0C-1393.8,10473.5-1393.9,10473.6-1394,10473.6C-1394,10473.6-1394,10473.6-1394,10473.6
			L-1394,10473.6z M-1393.5,10477.6c-0.1,0-0.2-0.1-0.2-0.2s0.1-0.2,0.2-0.2s0.2,0.1,0.2,0.2l0,0
			C-1393.3,10477.5-1393.4,10477.6-1393.5,10477.6C-1393.5,10477.6-1393.5,10477.6-1393.5,10477.6L-1393.5,10477.6z
			 M-1393.2,10479.6c-0.1,0-0.2-0.1-0.2-0.2s0.1-0.2,0.2-0.2s0.2,0.1,0.2,0.2l0,0C-1393,10479.5-1393.1,10479.6-1393.2,10479.6
			L-1393.2,10479.6z M-1393,10476.8c-0.1,0-0.2-0.1-0.2-0.2s0.1-0.2,0.2-0.2s0.2,0.1,0.2,0.2l0,0
			C-1392.9,10476.8-1392.9,10476.8-1393,10476.8L-1393,10476.8z M-1392.8,10478.4c0-0.1,0.1-0.2,0.2-0.2s0.2,0.1,0.2,0.2
			s-0.1,0.2-0.2,0.2l0,0C-1392.8,10478.6-1392.8,10478.5-1392.8,10478.4L-1392.8,10478.4z M-1392.5,10480.5c-0.1,0-0.2-0.1-0.2-0.2
			s0.1-0.2,0.2-0.2s0.2,0.1,0.2,0.2l0,0C-1392.4,10480.4-1392.4,10480.5-1392.5,10480.5L-1392.5,10480.5z M-1392.5,10477.6
			c-0.1,0-0.2-0.1-0.2-0.2s0.1-0.2,0.2-0.2s0.2,0.1,0.2,0.2l0,0C-1392.4,10477.6-1392.4,10477.6-1392.5,10477.6
			C-1392.5,10477.6-1392.5,10477.6-1392.5,10477.6L-1392.5,10477.6z M-1392.2,10476.5c-0.1,0-0.2-0.1-0.2-0.2s0.1-0.2,0.2-0.2
			s0.2,0.1,0.2,0.2l0,0C-1392,10476.4-1392.1,10476.5-1392.2,10476.5L-1392.2,10476.5z M-1392.2,10473.4c-0.1,0-0.2-0.1-0.2-0.2
			s0.1-0.2,0.2-0.2s0.2,0.1,0.2,0.2c0,0,0,0,0,0C-1392,10473.3-1392.1,10473.4-1392.2,10473.4
			C-1392.2,10473.4-1392.2,10473.4-1392.2,10473.4L-1392.2,10473.4z M-1392,10478.2c0-0.1,0.1-0.2,0.2-0.2s0.2,0.1,0.2,0.2
			s-0.1,0.2-0.2,0.2l0,0C-1391.9,10478.3-1392,10478.3-1392,10478.2L-1392,10478.2z M-1391.7,10479.2c-0.1,0-0.2-0.1-0.2-0.2
			s0.1-0.2,0.2-0.2s0.2,0.1,0.2,0.2l0,0C-1391.5,10479.2-1391.6,10479.2-1391.7,10479.2
			C-1391.7,10479.2-1391.7,10479.2-1391.7,10479.2L-1391.7,10479.2z M-1391.7,10477.3c-0.1,0-0.2-0.1-0.2-0.2s0.1-0.2,0.2-0.2
			s0.2,0.1,0.2,0.2l0,0C-1391.5,10477.2-1391.6,10477.2-1391.7,10477.3C-1391.7,10477.2-1391.7,10477.2-1391.7,10477.3
			L-1391.7,10477.3z M-1391.4,10476.4c-0.1,0-0.2-0.1-0.2-0.2s0.1-0.2,0.2-0.2s0.2,0.1,0.2,0.2l0,0
			C-1391.2,10476.3-1391.3,10476.4-1391.4,10476.4L-1391.4,10476.4z M-1391.2,10475.3c-0.1,0-0.2-0.1-0.2-0.2c0-0.1,0.1-0.2,0.2-0.2
			c0.1,0,0.1,0.1,0.2,0.1C-1391,10475.2-1391.1,10475.3-1391.2,10475.3C-1391.2,10475.3-1391.2,10475.3-1391.2,10475.3
			L-1391.2,10475.3z M-1390.3,10475.7c0,0.1-0.1,0.2-0.2,0.2s-0.2-0.1-0.2-0.2s0.1-0.2,0.2-0.2l0,0
			C-1390.3,10475.5-1390.3,10475.6-1390.3,10475.7C-1390.3,10475.7-1390.3,10475.7-1390.3,10475.7L-1390.3,10475.7z
			 M-1390.6,10473.9c0.1,0,0.2,0.1,0.2,0.2s-0.1,0.2-0.2,0.2s-0.2-0.1-0.2-0.2c0,0,0,0,0,0
			C-1390.8,10474-1390.7,10473.9-1390.6,10473.9C-1390.6,10473.9-1390.6,10473.9-1390.6,10473.9L-1390.6,10473.9z M-1390.6,10476.8
			c0.1,0,0.2,0.1,0.2,0.2s-0.1,0.2-0.2,0.2s-0.2-0.1-0.2-0.2c0,0,0,0,0,0C-1390.8,10476.8-1390.7,10476.8-1390.6,10476.8
			C-1390.6,10476.8-1390.6,10476.8-1390.6,10476.8L-1390.6,10476.8z M-1390.6,10479.1c0,0.1-0.1,0.2-0.2,0.2s-0.2-0.1-0.2-0.2
			s0.1-0.2,0.2-0.2l0,0C-1390.7,10478.9-1390.6,10479-1390.6,10479.1L-1390.6,10479.1z M-1390.8,10478c0,0.1-0.1,0.2-0.2,0.2
			s-0.2-0.1-0.2-0.2s0.1-0.2,0.2-0.2l0,0C-1390.8,10477.8-1390.8,10477.9-1390.8,10478L-1390.8,10478z"/>
	</g>
	<g id="group-390-2" transform="translate(28.971 446.681)">
		<path id="path-4" class="st1" d="M-1400.7,10477.7c-0.4,0-0.7-0.1-1.1,0c1.7,0.6,2.8,2.4,2.5,4.2c-0.3,2.4,0.5,4,1.6,4.7
			c0-0.1,0-0.3,0-0.5c0-0.3,0-0.6,0.1-0.9c0.2-1,0.5-2,1-3c-0.8-0.8-0.8-2.1-1.6-3.1c-0.1-0.1-0.1-0.1-0.2-0.2
			C-1398.9,10478.2-1399.7,10477.8-1400.7,10477.7z"/>
		<path id="path-5" class="st1" d="M-1391.3,10479.4c-0.2,0-0.5,0.1-0.7,0.1c-0.5,0.1-0.9,0.3-1.4,0.5c-1,0.4-1.9,1.2-2.5,2.1
			c-0.1,0.1-0.2,0.2-0.2,0.4c-0.5,0.8-0.8,1.8-0.9,2.7c0,0.4-0.1,0.8-0.1,1.2c0,0.2,0,0.4,0,0.4c0.2,0,0.4,0.1,0.6,0.1v5.7
			c-1.4-3.2-4.9-1.2-4.9-1.2c2.5-0.6,4.9,3.3,4.9,3.4h1c0,0,2.4-4,4.9-3.4c0,0-3.5-2.1-4.9,1.2v-5.6c0.4,0,0.7,0,1-0.1
			c2.4-0.7,1.8-4.1,1.9-5.1C-1392.4,10480.8-1392,10480-1391.3,10479.4z"/>
		<path id="path-6" class="st1" d="M-1395.8,10471.9c-1.4,0.1-2.5,1.3-2.4,2.7v3.7c0.2,0.1,0.3,0.3,0.5,0.5c0.7,0.9,0.7,2.2,1.5,3
			c0.7-1,1.7-1.8,2.8-2.2v-5C-1393.4,10473.2-1394.4,10472-1395.8,10471.9C-1395.8,10471.9-1395.8,10471.9-1395.8,10471.9z
			 M-1394.7,10473.2c0.1,0,0.2,0.1,0.2,0.2s-0.1,0.2-0.2,0.2s-0.2-0.1-0.2-0.2c0,0,0,0,0,0
			C-1394.8,10473.2-1394.8,10473.2-1394.7,10473.2C-1394.7,10473.2-1394.7,10473.2-1394.7,10473.2z M-1394.7,10474.2
			c0,0.1-0.1,0.2-0.2,0.2s-0.2-0.1-0.2-0.2s0.1-0.2,0.2-0.2l0,0C-1394.7,10474.1-1394.7,10474.1-1394.7,10474.2
			C-1394.7,10474.2-1394.7,10474.2-1394.7,10474.2z M-1395,10472.3c0.1,0,0.2,0.1,0.2,0.1c0,0,0,0,0,0c0,0.1-0.1,0.2-0.2,0.2
			s-0.2-0.1-0.2-0.2c0,0,0,0,0,0C-1395.1,10472.3-1395.1,10472.3-1395,10472.3C-1395,10472.3-1395,10472.3-1395,10472.3z
			 M-1395.8,10474.2c0.1,0,0.2,0.1,0.2,0.2s-0.1,0.2-0.2,0.2c-0.1,0-0.2-0.1-0.2-0.2c0,0,0,0,0,0
			C-1396,10474.3-1395.9,10474.2-1395.8,10474.2C-1395.8,10474.2-1395.8,10474.2-1395.8,10474.2L-1395.8,10474.2z M-1395.5,10475.5
			c0,0.1-0.1,0.2-0.2,0.2s-0.2-0.1-0.2-0.2s0.1-0.2,0.2-0.2l0,0C-1395.5,10475.3-1395.5,10475.4-1395.5,10475.5L-1395.5,10475.5z
			 M-1396,10472.1c0.1,0,0.2,0.1,0.2,0.1c0,0,0,0,0,0c0,0.1-0.1,0.2-0.2,0.2c-0.1,0-0.2-0.1-0.2-0.2c0,0,0,0,0,0
			C-1396.1,10472.2-1396.1,10472.1-1396,10472.1L-1396,10472.1z M-1396.6,10473.9c0-0.1,0.1-0.2,0.2-0.2s0.2,0.1,0.2,0.2
			s-0.1,0.2-0.2,0.2l0,0C-1396.6,10474.1-1396.6,10474-1396.6,10473.9L-1396.6,10473.9z M-1396.5,10475.9c0,0.1-0.1,0.2-0.1,0.2
			c0,0,0,0,0,0c-0.1,0-0.2-0.1-0.2-0.2c0-0.1,0.1-0.2,0.2-0.2C-1396.6,10475.7-1396.5,10475.8-1396.5,10475.9
			C-1396.5,10475.9-1396.5,10475.9-1396.5,10475.9z M-1396.5,10472.7c0.1,0,0.2,0.1,0.2,0.1c0,0,0,0,0,0c0,0.1-0.1,0.2-0.2,0.2
			s-0.2-0.1-0.2-0.2c0,0,0,0,0,0C-1396.6,10472.7-1396.6,10472.7-1396.5,10472.7L-1396.5,10472.7z M-1396.8,10474.7
			c0.1,0,0.2,0.1,0.2,0.2s-0.1,0.2-0.2,0.2s-0.2-0.1-0.2-0.2l0,0C-1397,10474.7-1396.9,10474.7-1396.8,10474.7L-1396.8,10474.7z
			 M-1397.8,10474.2c0.1,0,0.2,0.1,0.2,0.2s-0.1,0.2-0.2,0.2s-0.2-0.1-0.2-0.2c0,0,0,0,0,0
			C-1397.9,10474.3-1397.9,10474.2-1397.8,10474.2L-1397.8,10474.2z M-1397.8,10475.1c0.1,0,0.2,0.1,0.2,0.2s-0.1,0.2-0.2,0.2
			s-0.2-0.1-0.2-0.2l0,0C-1397.9,10475.2-1397.9,10475.1-1397.8,10475.1C-1397.8,10475.1-1397.8,10475.1-1397.8,10475.1
			L-1397.8,10475.1z M-1397.8,10477.2c-0.1,0-0.2-0.1-0.2-0.2s0.1-0.2,0.2-0.2s0.2,0.1,0.2,0.2l0,0
			C-1397.6,10477.2-1397.7,10477.2-1397.8,10477.2C-1397.8,10477.2-1397.8,10477.2-1397.8,10477.2L-1397.8,10477.2z
			 M-1397.4,10478.3c-0.1,0-0.2-0.1-0.2-0.2s0.1-0.2,0.2-0.2s0.2,0.1,0.2,0.2l0,0C-1397.3,10478.2-1397.4,10478.3-1397.4,10478.3
			L-1397.4,10478.3z M-1397.3,10476.4c-0.1,0-0.2-0.1-0.2-0.2s0.1-0.2,0.2-0.2s0.2,0.1,0.2,0.2l0,0
			C-1397.1,10476.3-1397.2,10476.4-1397.3,10476.4L-1397.3,10476.4z M-1397.3,10473.6c-0.1,0-0.2-0.1-0.2-0.2s0.1-0.2,0.2-0.2
			s0.2,0.1,0.2,0.2c0,0,0,0,0,0C-1397.1,10473.5-1397.2,10473.6-1397.3,10473.6C-1397.3,10473.6-1397.3,10473.6-1397.3,10473.6
			L-1397.3,10473.6z M-1396.8,10477.6c-0.1,0-0.2-0.1-0.2-0.2s0.1-0.2,0.2-0.2s0.2,0.1,0.2,0.2l0,0
			C-1396.6,10477.5-1396.7,10477.6-1396.8,10477.6C-1396.8,10477.6-1396.8,10477.6-1396.8,10477.6L-1396.8,10477.6z
			 M-1396.5,10479.6c-0.1,0-0.2-0.1-0.2-0.2s0.1-0.2,0.2-0.2s0.2,0.1,0.2,0.2l0,0C-1396.3,10479.5-1396.4,10479.6-1396.5,10479.6
			L-1396.5,10479.6z M-1396.3,10476.8c-0.1,0-0.2-0.1-0.2-0.2s0.1-0.2,0.2-0.2s0.2,0.1,0.2,0.2l0,0
			C-1396.2,10476.8-1396.2,10476.8-1396.3,10476.8L-1396.3,10476.8z M-1396.1,10478.4c0-0.1,0.1-0.2,0.2-0.2s0.2,0.1,0.2,0.2
			s-0.1,0.2-0.2,0.2l0,0C-1396.1,10478.6-1396.1,10478.5-1396.1,10478.4L-1396.1,10478.4z M-1395.8,10480.5c-0.1,0-0.2-0.1-0.2-0.2
			s0.1-0.2,0.2-0.2s0.2,0.1,0.2,0.2l0,0C-1395.7,10480.4-1395.7,10480.5-1395.8,10480.5L-1395.8,10480.5z M-1395.8,10477.6
			c-0.1,0-0.2-0.1-0.2-0.2s0.1-0.2,0.2-0.2s0.2,0.1,0.2,0.2l0,0C-1395.7,10477.6-1395.7,10477.6-1395.8,10477.6
			C-1395.8,10477.6-1395.8,10477.6-1395.8,10477.6L-1395.8,10477.6z M-1395.5,10476.5c-0.1,0-0.2-0.1-0.2-0.2s0.1-0.2,0.2-0.2
			s0.2,0.1,0.2,0.2l0,0C-1395.3,10476.4-1395.4,10476.5-1395.5,10476.5L-1395.5,10476.5z M-1395.5,10473.4c-0.1,0-0.2-0.1-0.2-0.2
			s0.1-0.2,0.2-0.2s0.2,0.1,0.2,0.2c0,0,0,0,0,0C-1395.3,10473.3-1395.4,10473.4-1395.5,10473.4
			C-1395.5,10473.4-1395.5,10473.4-1395.5,10473.4L-1395.5,10473.4z M-1395.3,10478.2c0-0.1,0.1-0.2,0.2-0.2s0.2,0.1,0.2,0.2
			s-0.1,0.2-0.2,0.2l0,0C-1395.2,10478.3-1395.3,10478.3-1395.3,10478.2L-1395.3,10478.2z M-1395,10479.2c-0.1,0-0.2-0.1-0.2-0.2
			s0.1-0.2,0.2-0.2s0.2,0.1,0.2,0.2l0,0C-1394.8,10479.2-1394.9,10479.2-1395,10479.2C-1395,10479.2-1395,10479.2-1395,10479.2
			L-1395,10479.2z M-1395,10477.3c-0.1,0-0.2-0.1-0.2-0.2s0.1-0.2,0.2-0.2s0.2,0.1,0.2,0.2l0,0
			C-1394.8,10477.2-1394.9,10477.2-1395,10477.3C-1395,10477.2-1395,10477.2-1395,10477.3L-1395,10477.3z M-1394.7,10476.4
			c-0.1,0-0.2-0.1-0.2-0.2s0.1-0.2,0.2-0.2s0.2,0.1,0.2,0.2l0,0C-1394.5,10476.3-1394.6,10476.4-1394.7,10476.4L-1394.7,10476.4z
			 M-1394.5,10475.3c-0.1,0-0.2-0.1-0.2-0.2s0.1-0.2,0.2-0.2c0.1,0,0.1,0.1,0.2,0.1C-1394.3,10475.2-1394.4,10475.3-1394.5,10475.3
			C-1394.5,10475.3-1394.5,10475.3-1394.5,10475.3L-1394.5,10475.3z M-1393.6,10475.7c0,0.1-0.1,0.2-0.2,0.2s-0.2-0.1-0.2-0.2
			s0.1-0.2,0.2-0.2l0,0C-1393.6,10475.5-1393.6,10475.6-1393.6,10475.7C-1393.6,10475.7-1393.6,10475.7-1393.6,10475.7
			L-1393.6,10475.7z M-1393.9,10473.9c0.1,0,0.2,0.1,0.2,0.2s-0.1,0.2-0.2,0.2s-0.2-0.1-0.2-0.2c0,0,0,0,0,0
			C-1394.1,10474-1394,10473.9-1393.9,10473.9C-1393.9,10473.9-1393.9,10473.9-1393.9,10473.9L-1393.9,10473.9z M-1393.9,10476.8
			c0.1,0,0.2,0.1,0.2,0.2s-0.1,0.2-0.2,0.2s-0.2-0.1-0.2-0.2c0,0,0,0,0,0C-1394.1,10476.8-1394,10476.8-1393.9,10476.8
			C-1393.9,10476.8-1393.9,10476.8-1393.9,10476.8L-1393.9,10476.8z M-1393.9,10479.1c0,0.1-0.1,0.2-0.2,0.2s-0.2-0.1-0.2-0.2
			s0.1-0.2,0.2-0.2l0,0C-1394,10478.9-1393.9,10479-1393.9,10479.1L-1393.9,10479.1z M-1394.1,10478c0,0.1-0.1,0.2-0.2,0.2
			s-0.2-0.1-0.2-0.2s0.1-0.2,0.2-0.2l0,0C-1394.1,10477.8-1394.1,10477.9-1394.1,10478L-1394.1,10478z"/>
	</g>
	<g id="group-390-3" transform="translate(33.333 436.536)">
		<path id="path-7" class="st1" d="M-1399,10478.4c-0.6-0.1-1.1-0.1-1.7,0c2.7,0.9,4.4,3.7,3.9,6.5c-0.4,3.7,0.7,6.2,2.5,7.3
			c0-0.2,0-0.5,0-0.8c0-0.5,0.1-0.9,0.1-1.4c0.2-1.6,0.8-3.2,1.6-4.6c-1.3-1.2-1.3-3.3-2.4-4.8c-0.1-0.1-0.2-0.2-0.2-0.3
			C-1396.2,10479.2-1397.5,10478.6-1399,10478.4z"/>
		<path id="path-8" class="st1" d="M-1384.5,10481c-0.4,0.1-0.7,0.1-1.1,0.2c-0.7,0.2-1.5,0.4-2.1,0.7c-1.6,0.7-2.9,1.8-3.9,3.2
			c-0.1,0.2-0.2,0.4-0.4,0.6c-0.7,1.3-1.2,2.7-1.4,4.2c-0.1,0.6-0.1,1.3-0.1,1.9c0,0.4,0,0.6,0,0.6c0.3,0.1,0.6,0.1,0.9,0.2v8.8
			c-2.1-5-7.6-1.8-7.6-1.8c3.9-1,7.6,5.2,7.6,5.2h1.5c0,0,3.7-6.2,7.6-5.2c0,0-5.5-3.2-7.6,1.8v-8.7c0.5,0,1.1-0.1,1.6-0.2
			c3.8-1.1,2.8-6.3,2.9-7.9C-1386.2,10483.3-1385.5,10482-1384.5,10481z"/>
		<path id="path-9" class="st1" d="M-1391.5,10469.4c-2.2,0.1-3.8,2-3.7,4.2v5.8c0.3,0.2,0.5,0.5,0.7,0.8c1.1,1.4,1.1,3.4,2.3,4.7
			c1.1-1.5,2.6-2.7,4.3-3.4v-7.8C-1387.6,10471.4-1389.3,10469.5-1391.5,10469.4C-1391.4,10469.4-1391.5,10469.4-1391.5,10469.4z
			 M-1389.6,10471.3c0.1,0,0.2,0.1,0.2,0.2s-0.1,0.2-0.2,0.2c-0.1,0-0.2-0.1-0.2-0.2C-1389.9,10471.5-1389.8,10471.3-1389.6,10471.3
			C-1389.6,10471.3-1389.6,10471.3-1389.6,10471.3z M-1389.6,10473c0,0.1-0.1,0.2-0.2,0.2s-0.2-0.1-0.2-0.2s0.1-0.2,0.2-0.2
			C-1389.8,10472.8-1389.6,10472.9-1389.6,10473C-1389.6,10473-1389.6,10473-1389.6,10473z M-1390.1,10469.9c0.1,0,0.2,0.1,0.2,0.2
			c0,0,0,0,0,0c0,0.1-0.1,0.2-0.2,0.2c-0.1,0-0.2-0.1-0.2-0.2c0,0,0,0,0,0C-1390.4,10470.1-1390.3,10469.9-1390.1,10469.9
			C-1390.1,10469.9-1390.1,10469.9-1390.1,10469.9L-1390.1,10469.9z M-1391.4,10473c0.1,0,0.2,0.1,0.2,0.2s-0.1,0.2-0.2,0.2
			c-0.1,0-0.2-0.1-0.2-0.2C-1391.7,10473.1-1391.6,10473-1391.4,10473C-1391.4,10473-1391.4,10473-1391.4,10473z M-1390.9,10474.9
			c0,0.1-0.1,0.2-0.2,0.2s-0.2-0.1-0.2-0.2s0.1-0.2,0.2-0.2C-1391,10474.7-1390.9,10474.8-1390.9,10474.9
			C-1390.9,10474.9-1390.9,10474.9-1390.9,10474.9L-1390.9,10474.9z M-1391.7,10469.7c0.1,0,0.2,0.1,0.2,0.2c0,0,0,0,0,0
			c0,0.1-0.1,0.2-0.2,0.2c-0.1,0-0.2-0.1-0.2-0.2c0,0,0,0,0,0C-1392,10469.8-1391.8,10469.7-1391.7,10469.7L-1391.7,10469.7z
			 M-1392.7,10472.5c0-0.1,0.1-0.2,0.2-0.2s0.2,0.1,0.2,0.2c0,0.1-0.1,0.2-0.2,0.2S-1392.7,10472.6-1392.7,10472.5
			C-1392.7,10472.5-1392.7,10472.5-1392.7,10472.5z M-1392.5,10475.5c0,0.1-0.1,0.2-0.2,0.2c0,0,0,0,0,0c-0.1,0-0.2-0.1-0.2-0.2l0,0
			c0-0.1,0.1-0.2,0.2-0.2C-1392.6,10475.3-1392.5,10475.4-1392.5,10475.5z M-1392.5,10470.6c0.1,0,0.2,0.1,0.2,0.2c0,0,0,0,0,0
			c0,0.1-0.1,0.2-0.2,0.2s-0.2-0.1-0.2-0.2c0,0,0,0,0,0C-1392.7,10470.7-1392.6,10470.6-1392.5,10470.6
			C-1392.5,10470.6-1392.5,10470.6-1392.5,10470.6L-1392.5,10470.6z M-1393,10473.7c0.1,0,0.2,0.1,0.2,0.2s-0.1,0.2-0.2,0.2
			c-0.1,0-0.2-0.1-0.2-0.2S-1393.1,10473.7-1393,10473.7L-1393,10473.7z M-1394.5,10473c0.1,0,0.2,0.1,0.2,0.2s-0.1,0.2-0.2,0.2
			c-0.1,0-0.2-0.1-0.2-0.2C-1394.7,10473.1-1394.6,10473-1394.5,10473L-1394.5,10473z M-1394.5,10474.4c0.1,0,0.2,0.1,0.2,0.2
			s-0.1,0.2-0.2,0.2c-0.1,0-0.2-0.1-0.2-0.2C-1394.7,10474.5-1394.6,10474.4-1394.5,10474.4L-1394.5,10474.4z M-1394.5,10477.7
			c-0.1,0-0.2-0.1-0.2-0.2s0.1-0.2,0.2-0.2s0.2,0.1,0.2,0.2C-1394.2,10477.6-1394.3,10477.7-1394.5,10477.7
			C-1394.5,10477.7-1394.5,10477.7-1394.5,10477.7L-1394.5,10477.7z M-1394,10479.3c-0.1,0-0.2-0.1-0.2-0.2s0.1-0.2,0.2-0.2
			s0.2,0.1,0.2,0.2C-1393.7,10479.2-1393.8,10479.3-1394,10479.3C-1394,10479.3-1394,10479.3-1394,10479.3L-1394,10479.3z
			 M-1393.7,10476.3c-0.1,0-0.2-0.1-0.2-0.2s0.1-0.2,0.2-0.2c0.1,0,0.2,0.1,0.2,0.2C-1393.5,10476.2-1393.6,10476.3-1393.7,10476.3
			C-1393.7,10476.3-1393.7,10476.3-1393.7,10476.3L-1393.7,10476.3z M-1393.7,10472c-0.1,0-0.2-0.1-0.2-0.2s0.1-0.2,0.2-0.2
			c0.1,0,0.2,0.1,0.2,0.2C-1393.5,10471.8-1393.6,10472-1393.7,10472C-1393.7,10472-1393.7,10472-1393.7,10472L-1393.7,10472z
			 M-1393,10478.2c-0.1,0-0.2-0.1-0.2-0.2s0.1-0.2,0.2-0.2c0.1,0,0.2,0.1,0.2,0.2C-1392.7,10478.1-1392.8,10478.2-1393,10478.2
			C-1393,10478.2-1393,10478.2-1393,10478.2L-1393,10478.2z M-1392.5,10481.3c-0.1,0-0.2-0.1-0.2-0.2s0.1-0.2,0.2-0.2
			s0.2,0.1,0.2,0.2C-1392.2,10481.2-1392.3,10481.3-1392.5,10481.3C-1392.5,10481.3-1392.5,10481.3-1392.5,10481.3L-1392.5,10481.3z
			 M-1392.2,10477.1c-0.1,0-0.2-0.1-0.2-0.2s0.1-0.2,0.2-0.2c0.1,0,0.2,0.1,0.2,0.2C-1392,10477-1392.1,10477.1-1392.2,10477.1
			C-1392.2,10477.1-1392.2,10477.1-1392.2,10477.1L-1392.2,10477.1z M-1392,10479.5c0-0.1,0.1-0.2,0.2-0.2c0.1,0,0.2,0.1,0.2,0.2
			c0,0.1-0.1,0.2-0.2,0.2C-1391.8,10479.8-1391.9,10479.7-1392,10479.5L-1392,10479.5z M-1391.5,10482.8c-0.1,0-0.2-0.1-0.2-0.2
			s0.1-0.2,0.2-0.2c0.1,0,0.2,0.1,0.2,0.2C-1391.2,10482.7-1391.3,10482.8-1391.5,10482.8
			C-1391.4,10482.8-1391.4,10482.8-1391.5,10482.8L-1391.5,10482.8z M-1391.5,10478.3c-0.1,0-0.2-0.1-0.2-0.2s0.1-0.2,0.2-0.2
			c0.1,0,0.2,0.1,0.2,0.2C-1391.2,10478.2-1391.3,10478.3-1391.5,10478.3C-1391.4,10478.3-1391.4,10478.3-1391.5,10478.3
			L-1391.5,10478.3z M-1390.9,10476.6c-0.1,0-0.2-0.1-0.2-0.2s0.1-0.2,0.2-0.2c0.1,0,0.2,0.1,0.2,0.2
			C-1390.7,10476.5-1390.8,10476.6-1390.9,10476.6L-1390.9,10476.6z M-1390.9,10471.7c-0.1,0-0.2-0.1-0.2-0.2c0-0.1,0.1-0.2,0.2-0.2
			c0.1,0,0.2,0.1,0.2,0.2C-1390.7,10471.6-1390.8,10471.7-1390.9,10471.7C-1390.9,10471.7-1390.9,10471.7-1390.9,10471.7
			L-1390.9,10471.7z M-1390.6,10479.2c0-0.1,0.1-0.2,0.2-0.2c0.1,0,0.2,0.1,0.2,0.2s-0.1,0.2-0.2,0.2
			C-1390.5,10479.4-1390.6,10479.3-1390.6,10479.2L-1390.6,10479.2z M-1390.1,10480.8c-0.1,0-0.2-0.1-0.2-0.2s0.1-0.2,0.2-0.2
			s0.2,0.1,0.2,0.2C-1389.9,10480.7-1390,10480.8-1390.1,10480.8C-1390.1,10480.8-1390.1,10480.8-1390.1,10480.8L-1390.1,10480.8z
			 M-1390.1,10477.7c-0.1,0-0.2-0.1-0.2-0.2s0.1-0.2,0.2-0.2s0.2,0.1,0.2,0.2C-1389.9,10477.6-1390,10477.7-1390.1,10477.7
			C-1390.1,10477.7-1390.1,10477.7-1390.1,10477.7L-1390.1,10477.7z M-1389.6,10476.3c-0.1,0-0.2-0.1-0.2-0.2s0.1-0.2,0.2-0.2
			c0.1,0,0.2,0.1,0.2,0.2C-1389.4,10476.2-1389.5,10476.3-1389.6,10476.3L-1389.6,10476.3z M-1389.4,10474.7c-0.1,0-0.2-0.1-0.2-0.2
			s0.1-0.2,0.2-0.2s0.2,0.1,0.2,0.2C-1389.1,10474.6-1389.2,10474.7-1389.4,10474.7C-1389.4,10474.7-1389.4,10474.7-1389.4,10474.7
			L-1389.4,10474.7z M-1388,10475.3c0,0.1-0.1,0.2-0.2,0.2s-0.2-0.1-0.2-0.2s0.1-0.2,0.2-0.2
			C-1388.1,10475-1388,10475.1-1388,10475.3C-1387.9,10475.3-1387.9,10475.3-1388,10475.3L-1388,10475.3z M-1388.5,10472.5
			c0.1,0,0.2,0.1,0.2,0.2s-0.1,0.2-0.2,0.2c-0.1,0-0.2-0.1-0.2-0.2C-1388.7,10472.6-1388.6,10472.5-1388.5,10472.5
			C-1388.5,10472.5-1388.5,10472.5-1388.5,10472.5L-1388.5,10472.5z M-1388.5,10477c0.1,0,0.2,0.1,0.2,0.2s-0.1,0.2-0.2,0.2
			c-0.1,0-0.2-0.1-0.2-0.2C-1388.7,10477.1-1388.6,10477-1388.5,10477C-1388.5,10477-1388.5,10477-1388.5,10477L-1388.5,10477z
			 M-1388.5,10480.6c0,0.1-0.1,0.2-0.2,0.2s-0.2-0.1-0.2-0.2s0.1-0.2,0.2-0.2C-1388.6,10480.3-1388.5,10480.4-1388.5,10480.6
			L-1388.5,10480.6z M-1388.7,10478.8c0,0.1-0.1,0.2-0.2,0.2s-0.2-0.1-0.2-0.2s0.1-0.2,0.2-0.2
			C-1388.8,10478.5-1388.7,10478.6-1388.7,10478.8C-1388.7,10478.8-1388.7,10478.8-1388.7,10478.8L-1388.7,10478.8z"/>
	</g>
</g>
</svg>
