<?xml version="1.0" encoding="utf-8"?>
<!-- Generator: Adobe Illustrator 21.1.0, SVG Export Plug-In . SVG Version: 6.00 Build 0)  -->
<svg version="1.1" id="Layer_1" xmlns="http://www.w3.org/2000/svg" xmlns:xlink="http://www.w3.org/1999/xlink" x="0px" y="0px"
	 viewBox="0 0 40 40" style="enable-background:new 0 0 40 40;" xml:space="preserve">
<style type="text/css">
	.st0{fill:#FFFFFF;}
</style>
<g id="Group_2323" transform="translate(2230 -5088.767)">
	<g id="Group_2321" transform="translate(0 0)">
		<g id="group-119-2" transform="translate(0.453 0.452)">
			<g id="group-118-2" transform="translate(0 0)">
				<path id="Exclusion_21" class="st0" d="M-2210.5,5127.8c-10.8,0-19.5-8.7-19.5-19.5s8.7-19.5,19.5-19.5s19.5,8.7,19.5,19.5
					c0,0,0,0,0,0C-2191,5119.1-2199.7,5127.8-2210.5,5127.8z M-2210.5,5091c-9.6,0-17.3,7.7-17.3,17.3s7.7,17.3,17.3,17.3
					c9.6,0,17.3-7.7,17.3-17.3c0,0,0,0,0,0C-2193.2,5098.8-2200.9,5091-2210.5,5091L-2210.5,5091z"/>
			</g>
		</g>
	</g>
	<g id="Group_2322" transform="translate(2.695 8.609)">
		<path id="Union_20" class="st0" d="M-2227.1,5111h29.3c0,0-7.3,7.1-14.6,7.1C-2219.7,5118.1-2227.1,5111-2227.1,5111z
			 M-2199.8,5107.4c-0.3-0.7-0.2-1.4,0.2-2.1c0.7,0.2,1.3,0.7,1.5,1.4c0.4,1.1,0.1,1.3-0.4,1.5c-0.1,0.1-0.3,0.1-0.5,0.1
			C-2199.2,5108.4-2199.5,5108.2-2199.8,5107.4L-2199.8,5107.4z M-2217.2,5107.4c-0.2-0.7-0.2-1.4,0.2-2.1c0.7,0.2,1.3,0.7,1.5,1.4
			c0.4,1.1,0.1,1.3-0.4,1.5c-0.1,0.1-0.3,0.1-0.5,0.1C-2216.6,5108.4-2216.9,5108.2-2217.2,5107.4L-2217.2,5107.4z M-2208.8,5108.3
			c-0.5-0.2-0.8-0.4-0.4-1.5c0.3-0.7,0.8-1.2,1.5-1.4c0.4,0.6,0.5,1.4,0.2,2.1c-0.3,0.7-0.6,0.9-0.9,0.9
			C-2208.5,5108.4-2208.7,5108.3-2208.8,5108.3z M-2226.2,5108.3c-0.5-0.2-0.8-0.4-0.4-1.5c0.3-0.7,0.8-1.2,1.5-1.4
			c0.4,0.6,0.5,1.4,0.2,2.1c-0.3,0.7-0.6,0.9-0.9,0.9C-2225.9,5108.4-2226,5108.3-2226.2,5108.3z M-2204.5,5107.1
			c0-0.7,0.4-1.4,0.9-1.9c0.6,0.4,0.9,1.1,0.9,1.9c0,1.2-0.4,1.3-0.9,1.3C-2204.1,5108.4-2204.5,5108.3-2204.5,5107.1
			L-2204.5,5107.1z M-2221.9,5107.1c0-0.7,0.4-1.4,0.9-1.9c0.6,0.4,0.9,1.1,0.9,1.9c0,1.2-0.4,1.3-0.9,1.3
			S-2221.9,5108.3-2221.9,5107.1L-2221.9,5107.1z M-2215.1,5105.4c-0.3-0.7-0.2-1.4,0.2-2.1c0.7,0.2,1.3,0.7,1.5,1.4
			c0.4,1.1,0.1,1.3-0.4,1.5c-0.1,0.1-0.3,0.1-0.5,0.1C-2214.6,5106.3-2214.8,5106.1-2215.1,5105.4L-2215.1,5105.4z M-2210.8,5106.2
			c-0.5-0.2-0.8-0.4-0.4-1.5c0.3-0.7,0.8-1.2,1.5-1.4c0.4,0.6,0.5,1.4,0.2,2.1c-0.3,0.7-0.6,0.9-0.9,0.9
			C-2210.5,5106.3-2210.7,5106.3-2210.8,5106.2L-2210.8,5106.2z M-2201.8,5104.4c-0.2-0.7-0.2-1.4,0.2-2.1c0.7,0.2,1.3,0.7,1.5,1.4
			c0.4,1.1,0.1,1.3-0.4,1.5c-0.1,0.1-0.3,0.1-0.5,0.1C-2201.3,5105.3-2201.5,5105.1-2201.8,5104.4L-2201.8,5104.4z M-2219.2,5104.4
			c-0.2-0.7-0.2-1.4,0.2-2.1c0.7,0.2,1.3,0.7,1.5,1.4c0.4,1.1,0.1,1.3-0.4,1.5c-0.1,0.1-0.3,0.1-0.5,0.1
			C-2218.7,5105.3-2218.9,5105.1-2219.2,5104.4L-2219.2,5104.4z M-2206.7,5105.2c-0.5-0.2-0.8-0.4-0.4-1.5c0.3-0.7,0.8-1.2,1.5-1.4
			c0.4,0.6,0.5,1.4,0.2,2.1c-0.3,0.7-0.6,0.9-0.9,0.9C-2206.5,5105.3-2206.6,5105.3-2206.7,5105.2L-2206.7,5105.2z M-2224.1,5105.2
			c-0.5-0.2-0.8-0.4-0.4-1.5c0.3-0.7,0.8-1.2,1.5-1.4c0.4,0.6,0.5,1.4,0.2,2.1c-0.3,0.7-0.6,0.9-0.9,0.9
			C-2223.8,5105.3-2224,5105.3-2224.1,5105.2L-2224.1,5105.2z M-2208.8,5102.1c-0.5-0.2-0.8-0.4-0.4-1.5c0.3-0.7,0.8-1.2,1.5-1.4
			c0.4,0.6,0.5,1.4,0.2,2.1c-0.3,0.7-0.6,0.9-0.9,0.9C-2208.5,5102.2-2208.7,5102.2-2208.8,5102.1L-2208.8,5102.1z M-2226.2,5102.1
			c-0.5-0.2-0.8-0.4-0.4-1.5c0.3-0.7,0.8-1.2,1.5-1.4c0.4,0.6,0.5,1.4,0.2,2.1c-0.3,0.7-0.6,0.9-0.9,0.9
			C-2225.9,5102.2-2226,5102.2-2226.2,5102.1z M-2199.8,5101.3c-0.3-0.7-0.2-1.4,0.2-2.1c0.7,0.2,1.3,0.7,1.5,1.4
			c0.4,1.1,0.1,1.3-0.4,1.5c-0.1,0.1-0.3,0.1-0.5,0.1C-2199.2,5102.2-2199.5,5102-2199.8,5101.3L-2199.8,5101.3z M-2217.2,5101.3
			c-0.2-0.7-0.2-1.4,0.2-2.1c0.7,0.2,1.3,0.7,1.5,1.4c0.4,1.1,0.1,1.3-0.4,1.5c-0.1,0.1-0.3,0.1-0.5,0.1
			C-2216.6,5102.2-2216.9,5102-2217.2,5101.3L-2217.2,5101.3z M-2204.5,5101c0-0.7,0.4-1.4,0.9-1.9c0.6,0.4,0.9,1.1,0.9,1.9
			c0,1.2-0.4,1.3-0.9,1.3S-2204.5,5102.2-2204.5,5101L-2204.5,5101z M-2221.9,5101c0-0.7,0.4-1.4,0.9-1.9c0.6,0.4,0.9,1.1,0.9,1.9
			c0,1.2-0.4,1.3-0.9,1.3C-2221.5,5102.2-2221.9,5102.2-2221.9,5101L-2221.9,5101z M-2202.9,5098.2c-0.2-0.7-0.2-1.4,0.2-2.1
			c0.7,0.2,1.3,0.7,1.5,1.4c0.4,1.1,0.1,1.3-0.4,1.5c-0.1,0.1-0.3,0.1-0.5,0.1C-2202.3,5099.2-2202.6,5099-2202.9,5098.2z
			 M-2220.2,5098.2c-0.2-0.7-0.2-1.4,0.2-2.1c0.7,0.2,1.3,0.7,1.5,1.4c0.4,1.1,0.1,1.3-0.4,1.5c-0.1,0.1-0.3,0.1-0.5,0.1
			C-2219.7,5099.2-2220,5099-2220.2,5098.2z M-2205.7,5099.1c-0.5-0.2-0.8-0.4-0.4-1.5c0.3-0.7,0.8-1.2,1.5-1.4
			c0.4,0.6,0.5,1.4,0.2,2.1c-0.3,0.7-0.6,0.9-0.9,0.9C-2205.4,5099.2-2205.6,5099.1-2205.7,5099.1L-2205.7,5099.1z M-2223.1,5099.1
			c-0.5-0.2-0.8-0.4-0.4-1.5c0.3-0.7,0.8-1.2,1.5-1.4c0.4,0.6,0.5,1.4,0.2,2.1c-0.3,0.7-0.6,0.9-0.9,0.9
			C-2222.8,5099.2-2223,5099.1-2223.1,5099.1L-2223.1,5099.1z M-2204.6,5094.7l-0.3-2h-14.5l-0.4,2h-2.3l-0.3-2h-7.3l1.2-2.7h31.3
			l1.2,2.7h-6.2l-0.4,2H-2204.6z"/>
	</g>
</g>
</svg>
