<?xml version="1.0" encoding="utf-8"?>
<!-- Generator: Adobe Illustrator 21.1.0, SVG Export Plug-In . SVG Version: 6.00 Build 0)  -->
<svg version="1.1" id="Layer_1" xmlns="http://www.w3.org/2000/svg" xmlns:xlink="http://www.w3.org/1999/xlink" x="0px" y="0px"
	 viewBox="0 0 40 40" style="enable-background:new 0 0 40 40;" xml:space="preserve">
<style type="text/css">
	.st0{fill:#FAFAFA;}
</style>
<g>
	<circle class="st0" cx="18.5" cy="26" r="1.8"/>
	<circle class="st0" cx="12.2" cy="29.2" r="3.8"/>
	<circle class="st0" cx="11.8" cy="20.4" r="3"/>
	<path class="st0" d="M13.6,13.1c0,3.5,2.9,6.4,6.4,6.4c3.5,0,6.4-2.9,6.4-6.4c0-3.5-2.9-6.4-6.4-6.4C16.5,6.7,13.6,9.6,13.6,13.1
		L13.6,13.1C13.6,13.1,13.6,13.1,13.6,13.1z"/>
	<path class="st0" d="M20,0C9,0,0,9,0,20c0,11,9,20,20,20c11,0,20-9,20-20C40,9,31,0,20,0z M20,37.5c-9.6,0-17.5-7.8-17.5-17.5
		c0-9.6,7.8-17.5,17.5-17.5s17.5,7.8,17.5,17.5C37.5,29.7,29.6,37.5,20,37.5z"/>
	<path class="st0" d="M28.2,17.9c-3.7,0-6.7,3-6.7,6.7c0,3.7,3,6.7,6.7,6.7h0c3.7,0,6.7-3,6.7-6.7C34.9,20.9,31.9,17.9,28.2,17.9z"
		/>
</g>
</svg>
