<?xml version="1.0" encoding="utf-8"?>
<!-- Generator: Adobe Illustrator 21.1.0, SVG Export Plug-In . SVG Version: 6.00 Build 0)  -->
<svg version="1.1" id="Layer_1" xmlns="http://www.w3.org/2000/svg" xmlns:xlink="http://www.w3.org/1999/xlink" x="0px" y="0px"
	 viewBox="0 0 40 40" style="enable-background:new 0 0 40 40;" xml:space="preserve">
<style type="text/css">
	.st0{fill:#FAFAFA;}
	.st1{fill:#52812D;}
</style>
<g>
	<path class="st0" d="M40,20C40,9,31,0,20,0C9,0,0,9,0,20c0,7.3,4,13.7,9.9,17.2c0.8-2.1,1.6-3.8,3-4.8c1.3-0.9,2.9-1.6,4.4-2v-1.6
		c-4.1-1-7.2-4.3-8-8.5c-0.1,0-0.1,0-0.2,0c-1.1-0.1-1.9-0.9-1.8-2c0-1.1,0.8-1.9,1.8-2h0.1c-0.8-6,3.4-11.5,9.3-12.3
		c6-0.8,11.5,3.4,12.3,9.3c0.1,0.9,0.1,1.9,0,2.8c-0.1,0-0.1,0-0.2,0c0,0.1,0,0.1,0,0.2c0.1,0,0.1,0,0.2,0c1.1,0.1,1.9,0.9,1.8,2
		c0,1.1-0.8,1.9-1.8,2c-0.1,0-0.1,0-0.2,0c-0.8,4.3-4.1,7.6-8.1,8.6v1.5c1.6,0.4,3.1,1.1,4.5,2c1.4,0.9,2.2,2.6,3,4.8
		C36,33.7,40,27.3,40,20z"/>
	<polygon class="st1" points="9.3,20.3 9.3,20.3 9.3,20.3 	"/>
</g>
</svg>
