<?xml version="1.0" encoding="utf-8"?>
<!-- Generator: Adobe Illustrator 21.1.0, SVG Export Plug-In . SVG Version: 6.00 Build 0)  -->
<svg version="1.1" id="Layer_1" xmlns="http://www.w3.org/2000/svg" xmlns:xlink="http://www.w3.org/1999/xlink" x="0px" y="0px"
	 viewBox="0 0 40 40" style="enable-background:new 0 0 40 40;" xml:space="preserve">
<style type="text/css">
	.st0{fill:#FAFAFA;}
	.st1{fill:#E9B896;}
	.st2{fill:#412413;}
</style>
<g id="group-33" transform="translate(1425 -5495.272)">
	<g id="usuario" transform="translate(0 0)">
		<ellipse id="ellipse" class="st0" cx="-1405" cy="5515.2" rx="19.8" ry="19.7"/>
		<path id="path" class="st1" d="M-1402.2,5526.3"/>
		<path id="path-10" class="st2" d="M-1405,5534.9c-3.5,0-7-0.9-10-2.7c0.5-1.8,1.5-3.5,3-4.7c1.3-0.9,2.8-1.6,4.4-2v-5.1h5.3v5.2
			c1.6,0.4,3.1,1.1,4.5,2c1.5,1.2,2.5,2.9,3,4.7C-1398,5534-1401.5,5534.9-1405,5534.9L-1405,5534.9z"/>
		<path id="path-9" class="st2" d="M-1415.7,5515.5c-0.1,0-0.1,0-0.2,0c-1-0.1-1.8-0.9-1.8-2c0-1,0.8-1.9,1.8-2h0.1
			c-0.8-5.9,3.3-11.4,9.3-12.2c5.9-0.8,11.4,3.3,12.2,9.2c0.1,0.9,0.1,1.9,0,2.8c-0.1,0-0.1,0-0.2,0c0,0.1,0,0.1,0,0.2
			c0.1,0,0.1,0,0.2,0c1,0.1,1.8,0.9,1.8,2c0,1-0.8,1.9-1.8,2c-0.1,0-0.1,0-0.2,0c-1.1,5.9-6.7,9.7-12.6,8.6
			C-1411.4,5523.3-1414.9,5519.9-1415.7,5515.5L-1415.7,5515.5z"/>
	</g>
</g>
</svg>
