<svg xmlns="http://www.w3.org/2000/svg" viewBox="1395 -6957 40 40">
  <defs>
    <style>
      .cls-1 {
        fill: #412413;
      }
    </style>
  </defs>
  <g id="Group_2787" data-name="Group 2787" transform="translate(1395 -6957)">
    <path id="Path_5019" data-name="Path 5019" class="cls-1" d="M40,20A20,20,0,1,0,20,40a18.615,18.615,0,0,0,3.193-.336h0A19.893,19.893,0,0,0,40,20ZM16.134,4.37V5.714H12.605A21.956,21.956,0,0,1,16.134,4.37ZM20,36.134a15.615,15.615,0,0,1-4.874-.84h8.235v.5A22.777,22.777,0,0,1,20,36.134ZM31.092,31.6l-7.9-7.9v4.538H18.655l-5.882,6.05a15.577,15.577,0,0,1-6.555-6.218h5.546v5.546L21.681,23.7,11.6,13.95V19.5H4.034A16.356,16.356,0,0,1,6.05,11.933H16.134v4.034l7.059-7.059L18.319,4.034c.5,0,1.176-.168,1.681-.168A16.051,16.051,0,0,1,31.092,31.6Z"/>
    <path id="Path_5020" data-name="Path 5020" class="cls-1" d="M19.98,5.8V9.666h-6.05L10.4,13.195l3.025,2.689H19.98V19.75l7.059-7.059Z" transform="translate(7.079 3.948)"/>
  </g>
</svg>
