<?xml version="1.0" encoding="utf-8"?>
<!-- Generator: Adobe Illustrator 21.1.0, SVG Export Plug-In . SVG Version: 6.00 Build 0)  -->
<svg version="1.1" id="Layer_1" xmlns="http://www.w3.org/2000/svg" xmlns:xlink="http://www.w3.org/1999/xlink" x="0px" y="0px"
	 viewBox="0 0 40 40" style="enable-background:new 0 0 40 40;" xml:space="preserve">
<style type="text/css">
	.st0{fill:#FAFAFA;}
	.st1{fill:#412413;}
	.st2{fill:#FFFFFF;}
</style>
<g id="group-98" transform="translate(1425 -5451.289)">
	<ellipse id="ellipse" class="st0" cx="-1405" cy="5471.3" rx="20" ry="19.9"/>
	<path id="path-2" class="st1" d="M-1401.6,5473.3c-1.1-1.4-2.2-2.6-3.4-3.9c-0.1-0.1-0.2-0.1-0.3-0.1c-0.1,0-0.2,0.1-0.3,0.1
		c0,0-1.6,1.8-3.2,4.1c-2.1,3.1-3.2,5.4-3.1,7c0.1,3.8,3.2,6.9,7.1,6.8c3.9-0.1,6.9-3.2,6.9-7.1c0-0.1,0-0.1,0-0.2
		C-1398.1,5478.5-1399.2,5476.2-1401.6,5473.3z"/>
	<g transform="matrix(1, 0, 0, 1, -1425, 5451.29)">
		<path id="path-3" class="st1" d="M33.4,23.5c0-3.1-2.3-7.5-6.8-13.1c-2.1-2.6-4.3-5.1-6.6-7.5c-0.2-0.2-0.4-0.3-0.6-0.2
			c-0.2,0-0.5,0.1-0.6,0.3c0,0-3.1,3.5-6.1,7.8c-4.1,5.9-6.1,10.4-6.1,13.5c0.3,7.4,6.5,13.1,13.9,12.9
			C27.8,36.9,33.5,30.8,33.4,23.5L33.4,23.5z M20.3,36.6c-5.7,0.2-10.4-4.3-10.6-10c-0.1-2.4,1.5-5.8,4.7-10.4c2.3-3.3,4.7-6,4.7-6
			c0.1-0.1,0.3-0.2,0.5-0.2c0.2,0,0.4,0,0.5,0.2c1.8,1.8,3.5,3.7,5.1,5.7c3.4,4.3,5.2,7.7,5.2,10.1C30.5,31.7,26,36.4,20.3,36.6z"/>
	</g>
	<path id="path-4" class="st2" d="M-1401,5481.2c0,2.5-2,4.5-4.5,4.5c-0.6,0-1.3-0.3-1.4-0.9c0-0.2,0.1-0.4,0.2-0.5
		c0.4-0.4,0.9-0.7,1.5-0.8c0.6,0,1.1-0.1,1.7-0.2c0.9-0.2,1.7-0.9,2-1.8"/>
</g>
</svg>
