<?xml version="1.0" encoding="utf-8"?>
<!-- Generator: Adobe Illustrator 21.1.0, SVG Export Plug-In . SVG Version: 6.00 Build 0)  -->
<svg version="1.1" id="Layer_1" xmlns="http://www.w3.org/2000/svg" xmlns:xlink="http://www.w3.org/1999/xlink" x="0px" y="0px"
	 viewBox="0 0 40 40" style="enable-background:new 0 0 40 40;" xml:space="preserve">
<style type="text/css">
	.st0{fill:#FAFAFA;}
	.st1{fill:#412413;}
</style>
<g id="group-117" transform="translate(1425 -5407.272)">
	<g id="group-116" transform="translate(0 0)">
		<circle id="ellipse" class="st0" cx="-1405" cy="5427.3" r="19.9"/>
		<g transform="matrix(1, 0, 0, 1, -1425, 5407.27)">
			<path id="path-2" class="st1" d="M20,2.6C10.4,2.6,2.6,10.4,2.6,20S10.4,37.4,20,37.4S37.4,29.7,37.4,20S29.6,2.6,20,2.6L20,2.6z
				 M11.9,23.3c-1.6,0-3-1.3-3-3c0-1.6,1.3-3,3-3c1.6,0,3,1.3,3,3l0,0C14.9,22,13.6,23.3,11.9,23.3z M12.3,33
				c-2.1,0-3.8-1.7-3.8-3.8c0-2.1,1.7-3.8,3.8-3.8s3.8,1.7,3.8,3.8S14.4,33,12.3,33L12.3,33z M18.6,27.7c-1,0-1.8-0.8-1.8-1.8
				s0.8-1.8,1.8-1.8c1,0,1.8,0.8,1.8,1.8l0,0C20.3,26.9,19.5,27.7,18.6,27.7z M13.7,13.1c0-3.5,2.8-6.3,6.3-6.3
				c3.5,0,6.3,2.8,6.3,6.3c0,3.5-2.8,6.3-6.3,6.3C16.5,19.4,13.7,16.6,13.7,13.1C13.7,13.1,13.7,13.1,13.7,13.1z M28.2,31.2
				c-3.7,0-6.7-3-6.7-6.7c0-3.7,3-6.7,6.7-6.7s6.7,3,6.7,6.7S31.9,31.2,28.2,31.2L28.2,31.2z"/>
		</g>
	</g>
</g>
</svg>
