<?xml version="1.0" encoding="utf-8"?>
<!-- Generator: Adobe Illustrator 21.1.0, SVG Export Plug-In . SVG Version: 6.00 Build 0)  -->
<svg version="1.1" id="Layer_1" xmlns="http://www.w3.org/2000/svg" xmlns:xlink="http://www.w3.org/1999/xlink" x="0px" y="0px"
	 viewBox="0 0 40 40" style="enable-background:new 0 0 40 40;" xml:space="preserve">
<style type="text/css">
	.st0{fill:#412413;}
	.st1{fill:#FFFFFF;}
</style>
<g id="Group_2653" transform="translate(1353 -5883.272)">
	<g id="Group_2652" transform="translate(72 520)">
		<g id="Group_2650" transform="translate(0 0)">
			<g id="group-119" transform="translate(0)">
				<g id="group-118">
					<ellipse id="ellipse" class="st0" cx="-1405" cy="5383.2" rx="19.9" ry="19.9"/>
				</g>
			</g>
			<g id="group-119-2" transform="translate(0.311 0.31)">
				<g id="group-118-2" transform="translate(0 0)">
					<path id="Exclusion_38" class="st1" d="M-1405.3,5402.3c-10.7,0-19.4-8.7-19.4-19.4s8.7-19.4,19.4-19.4s19.4,8.7,19.4,19.4
						C-1385.9,5393.6-1394.6,5402.3-1405.3,5402.3z M-1405.3,5365.7c-9.5,0-17.2,7.7-17.2,17.2c0,9.5,7.7,17.2,17.2,17.2
						c9.5,0,17.2-7.7,17.2-17.2c0,0,0,0,0,0C-1388.1,5373.4-1395.8,5365.7-1405.3,5365.7L-1405.3,5365.7z"/>
				</g>
			</g>
		</g>
		<g id="Group_2651" transform="translate(1.847 5.9)">
			<path id="Union_37" class="st1" d="M-1421.2,5388.2h29.1c0,0-7.2,7.1-14.5,7.1S-1421.2,5388.2-1421.2,5388.2z M-1394,5384.6
				c-0.2-0.7-0.2-1.4,0.2-2.1c0.7,0.2,1.3,0.7,1.5,1.4c0.4,1.1,0.1,1.3-0.4,1.5c-0.1,0.1-0.3,0.1-0.5,0.1
				C-1393.4,5385.5-1393.7,5385.3-1394,5384.6z M-1411.3,5384.6c-0.2-0.7-0.2-1.4,0.2-2.1c0.7,0.2,1.3,0.7,1.5,1.4
				c0.4,1.1,0.1,1.3-0.4,1.5c-0.1,0.1-0.3,0.1-0.5,0.1C-1410.8,5385.5-1411,5385.3-1411.3,5384.6L-1411.3,5384.6z M-1403,5385.4
				c-0.5-0.2-0.8-0.4-0.4-1.5c0.3-0.7,0.8-1.2,1.5-1.4c0.4,0.6,0.5,1.4,0.2,2.1c-0.3,0.7-0.6,0.9-0.9,0.9
				C-1402.7,5385.5-1402.8,5385.5-1403,5385.4L-1403,5385.4z M-1420.3,5385.4c-0.5-0.2-0.8-0.4-0.4-1.5c0.3-0.7,0.8-1.2,1.5-1.4
				c0.4,0.6,0.5,1.4,0.2,2.1c-0.3,0.7-0.6,0.9-0.9,0.9C-1420,5385.5-1420.2,5385.5-1420.3,5385.4L-1420.3,5385.4z M-1398.7,5384.3
				c0-0.7,0.3-1.4,0.9-1.8c0.6,0.4,0.9,1.1,0.9,1.9c0,1.2-0.4,1.2-0.9,1.2S-1398.7,5385.5-1398.7,5384.3L-1398.7,5384.3z
				 M-1416.1,5384.3c0-0.7,0.3-1.4,0.9-1.9c0.6,0.4,0.9,1.1,0.9,1.9c0,1.2-0.4,1.2-0.9,1.2S-1416.1,5385.5-1416.1,5384.3
				L-1416.1,5384.3z M-1409.3,5382.5c-0.2-0.7-0.2-1.4,0.2-2.1c0.7,0.2,1.3,0.7,1.5,1.4c0.4,1.1,0.1,1.3-0.4,1.5
				c-0.1,0.1-0.3,0.1-0.5,0.1C-1408.7,5383.5-1409,5383.3-1409.3,5382.5z M-1405,5383.4c-0.5-0.2-0.8-0.4-0.4-1.5
				c0.3-0.7,0.8-1.2,1.5-1.4c0.4,0.6,0.5,1.4,0.2,2.1c-0.3,0.7-0.6,0.9-0.9,0.9C-1404.7,5383.5-1404.9,5383.4-1405,5383.4
				L-1405,5383.4z M-1396,5381.5c-0.2-0.7-0.2-1.4,0.2-2.1c0.7,0.2,1.3,0.7,1.5,1.4c0.4,1.1,0.1,1.3-0.4,1.5
				c-0.1,0.1-0.3,0.1-0.5,0.1C-1395.5,5382.5-1395.8,5382.3-1396,5381.5L-1396,5381.5z M-1413.4,5381.5c-0.2-0.7-0.2-1.4,0.2-2.1
				c0.7,0.2,1.3,0.7,1.5,1.4c0.4,1.1,0.1,1.3-0.4,1.5c-0.1,0.1-0.3,0.1-0.5,0.1C-1412.8,5382.5-1413.1,5382.3-1413.4,5381.5
				L-1413.4,5381.5z M-1400.9,5382.3c-0.5-0.2-0.8-0.4-0.4-1.5c0.3-0.7,0.8-1.2,1.5-1.4c0.4,0.6,0.5,1.4,0.2,2.1
				c-0.3,0.7-0.6,0.9-0.9,0.9C-1400.6,5382.4-1400.8,5382.4-1400.9,5382.3L-1400.9,5382.3z M-1418.3,5382.3
				c-0.5-0.2-0.8-0.4-0.4-1.5c0.3-0.7,0.8-1.2,1.5-1.4c0.4,0.6,0.5,1.4,0.2,2.1c-0.3,0.7-0.6,0.9-0.9,0.9
				C-1418,5382.4-1418.1,5382.4-1418.3,5382.3L-1418.3,5382.3z M-1403,5379.3c-0.5-0.2-0.8-0.4-0.4-1.5c0.3-0.7,0.8-1.2,1.5-1.4
				c0.4,0.6,0.5,1.4,0.2,2.1c-0.3,0.7-0.6,0.9-0.9,0.9C-1402.7,5379.4-1402.8,5379.4-1403,5379.3z M-1420.3,5379.3
				c-0.5-0.2-0.8-0.4-0.4-1.5c0.3-0.7,0.8-1.2,1.5-1.4c0.4,0.6,0.5,1.4,0.2,2.1c-0.3,0.7-0.6,0.9-0.9,0.9
				C-1420,5379.4-1420.2,5379.4-1420.3,5379.3L-1420.3,5379.3z M-1394,5378.5c-0.2-0.7-0.2-1.4,0.2-2.1c0.7,0.2,1.3,0.7,1.5,1.4
				c0.4,1.1,0.1,1.3-0.4,1.5c-0.1,0.1-0.3,0.1-0.5,0.1C-1393.4,5379.4-1393.7,5379.2-1394,5378.5L-1394,5378.5z M-1411.3,5378.5
				c-0.2-0.7-0.2-1.4,0.2-2.1c0.7,0.2,1.3,0.7,1.5,1.4c0.4,1.1,0.1,1.3-0.4,1.5c-0.1,0.1-0.3,0.1-0.5,0.1
				C-1410.8,5379.4-1411,5379.2-1411.3,5378.5L-1411.3,5378.5z M-1398.7,5378.2c0-0.7,0.3-1.4,0.9-1.9c0.6,0.4,0.9,1.1,0.9,1.9
				c0,1.2-0.4,1.2-0.9,1.2S-1398.7,5379.3-1398.7,5378.2L-1398.7,5378.2z M-1416.1,5378.2c0-0.7,0.3-1.4,0.9-1.9
				c0.6,0.4,0.9,1.1,0.9,1.9c0,1.2-0.4,1.2-0.9,1.2C-1415.7,5379.4-1416.1,5379.3-1416.1,5378.2L-1416.1,5378.2z M-1397.1,5375.4
				c-0.2-0.7-0.2-1.4,0.2-2.1c0.7,0.2,1.3,0.7,1.5,1.4c0.4,1.1,0.1,1.3-0.4,1.5c-0.1,0.1-0.3,0.1-0.5,0.1
				C-1396.5,5376.3-1396.8,5376.1-1397.1,5375.4z M-1414.4,5375.4c-0.2-0.7-0.2-1.4,0.2-2.1c0.7,0.2,1.3,0.7,1.5,1.4
				c0.4,1.1,0.1,1.3-0.4,1.5c-0.1,0.1-0.3,0.1-0.5,0.1C-1413.8,5376.3-1414.1,5376.1-1414.4,5375.4L-1414.4,5375.4z M-1399.9,5376.2
				c-0.5-0.2-0.8-0.4-0.4-1.5c0.3-0.7,0.8-1.2,1.5-1.4c0.4,0.6,0.5,1.4,0.2,2.1c-0.3,0.7-0.6,0.9-0.9,0.9
				C-1399.6,5376.3-1399.8,5376.3-1399.9,5376.2L-1399.9,5376.2z M-1417.2,5376.2c-0.5-0.2-0.8-0.4-0.4-1.5c0.3-0.7,0.8-1.2,1.5-1.4
				c0.4,0.6,0.5,1.4,0.2,2.1c-0.3,0.7-0.6,0.9-0.9,0.9C-1416.9,5376.3-1417.1,5376.3-1417.2,5376.2z M-1398.8,5371.9l-0.3-2h-14.5
				l-0.4,2h-2.3l-0.3-2h-7.2l1.2-2.7h31.2l1.2,2.7h-6.2l-0.4,2L-1398.8,5371.9z"/>
		</g>
	</g>
</g>
</svg>
