<?xml version="1.0" encoding="utf-8"?>
<!-- Generator: Adobe Illustrator 21.1.0, SVG Export Plug-In . SVG Version: 6.00 Build 0)  -->
<svg version="1.1" id="Layer_1" xmlns="http://www.w3.org/2000/svg" xmlns:xlink="http://www.w3.org/1999/xlink" x="0px" y="0px"
	 viewBox="0 0 40 40" style="enable-background:new 0 0 40 40;" xml:space="preserve">
<style type="text/css">
	.st0{fill:#FFFFFF;}
</style>
<g>
	<path class="st0" d="M36.2,11.7c-0.1-0.3-0.2-0.5-0.3-0.8c0,0,0,0,0,0c0,0,0,0.1,0,0.1C36.1,11.2,36.1,11.5,36.2,11.7z"/>
	<path class="st0" d="M36.8,9.2c0,0.2,0,0.3,0,0.5l-0.2,0.9c0.5,1.2,0.6,2.4,0.3,3.7c0.6,1.8,0.9,3.7,0.9,5.7
		c0,4.8-1.9,9.2-5.1,12.4H34c0,0-6.8,6.1-13.6,6.1S6.7,32.4,6.7,32.4h0.7C4.2,29.2,2.2,24.8,2.2,20c0-9.8,8-17.8,17.8-17.8
		c4.8,0,9.2,1.9,12.4,5c0.1,0,0.1,0,0.2,0l3.3,0.9c0.1,0,0.2,0.1,0.4,0.2C32.6,3.3,26.7,0,20,0C9,0,0,9,0,20c0,11,9,20,20,20
		c11,0,20-9,20-20C40,16,38.8,12.3,36.8,9.2z"/>
	<path class="st0" d="M35.7,8.8c0.2,0.1,0.3,0.2,0.4,0.3C36,8.9,35.9,8.8,35.7,8.8L33.1,8c0,0,0,0,0,0.1L35.7,8.8z"/>
	<path class="st0" d="M28.5,15.9C28.5,15.8,28.5,15.8,28.5,15.9L28.5,15.9C28.5,15.8,28.5,15.8,28.5,15.9c-0.5,0.2-1.3,0.5-1.9,0.8
		l0.1,0C27.3,16.4,28,16.1,28.5,15.9z"/>
	<path class="st0" d="M28.6,11.6C28.5,11.6,28.5,11.6,28.6,11.6l0.4,0.3c-0.1,0-0.1-0.1-0.2-0.1L28.6,11.6z"/>
	<path class="st0" d="M30.7,13.4c-0.1,0.1-0.1,0.2-0.2,0.4c0,0,0,0,0,0.1C30.6,13.7,30.7,13.6,30.7,13.4c0.1-0.3,0.1-0.6,0-1
		c0,0,0,0,0,0C30.8,12.8,30.8,13.1,30.7,13.4z"/>
	<path class="st0" d="M31.9,7.9c-0.6,0.3-1.2,0.7-1.7,1.1c-0.1,0.1-0.2,0.1-0.3,0.2c0.1-0.1,0.2-0.1,0.3-0.1
		C30.8,8.7,31.4,8.3,31.9,7.9c0.2,0,0.4-0.1,0.5,0l0.7,0.2c0,0,0,0,0-0.1l-0.7-0.2C32.3,7.8,32.1,7.8,31.9,7.9z"/>
	<path class="st0" d="M20,37.8c-5,0-9.5-2-12.7-5.3H6.7c0,0,6.9,6.1,13.7,6.1S34,32.4,34,32.4h-1.3C29.5,35.7,25,37.8,20,37.8z"/>
	<path class="st0" d="M21.1,33c-0.7,1.4-2.5,1.9-3.9,1.2l-3.2-1.7H7.3c3.2,3.3,7.7,5.3,12.7,5.3s9.5-2,12.7-5.3H21.4L21.1,33z"/>
	<polygon class="st0" points="19.6,32.4 18.7,32.4 19.4,32.8 	"/>
	<path class="st0" d="M28.5,15.8L28.5,15.8c0.8-0.3,1.6-1,2-1.9c0,0,0,0,0-0.1C30.1,14.7,29.4,15.3,28.5,15.8z"/>
	<path class="st0" d="M25.2,17.6c0-0.1,0-0.1,0-0.2c0.1-0.2,0.2-0.3,0.4-0.4c0,0,0,0,0,0c0.1,0,0.5-0.2,1-0.4l-0.1,0
		c-0.5,0.2-0.8,0.3-0.9,0.4c0,0,0,0,0,0c-0.2,0.1-0.3,0.2-0.4,0.4C25.2,17.5,25.2,17.5,25.2,17.6L25.2,17.6c0,0.1,0,0.2,0,0.3
		C25.2,17.9,25.2,17.8,25.2,17.6L25.2,17.6z"/>
	<path class="st0" d="M27.2,19c-0.2,0.1-0.3,0.1-0.5,0.2c-0.3,0.1-0.7,0.1-1,0.1c-0.7-0.2-1.1-0.7-1.2-1.4c0-0.6,0.3-1.2,0.8-1.4
		c0,0,0.1,0,0.1,0c0,0,0.2-0.1,0.4-0.2L13.2,9.5l1-1.9l14.1,7.5c0.7-0.4,2-1.3,1.8-2.3c-0.1-0.2-0.3-0.4-0.5-0.6
		c-0.2-0.1-0.4-0.3-0.6-0.4l-0.5-0.3c0,0,0,0,0,0l-1.8-1c0,0,0,0,0,0c0,0,0,0,0,0c0,0,0,0,0,0c0,0,0,0,0,0L25.6,10
		c0,0,0-0.1,0.1-0.1c0.7-1.4,0.2-3.1-1.2-3.9c-1.4-0.7-3.1-0.2-3.9,1.2c0,0,0,0.1,0,0.1L17,5.5c-1.4-0.7-3.1-0.2-3.9,1.2L4,23.8
		c-0.7,1.4-0.2,3.1,1.2,3.9l8.9,4.8h4.6l-9-4.8l1-1.9l9.7,5.2l-0.8,1.5h1.8l7-13.1c-0.1,0-0.3,0-0.4,0C27.7,19.3,27.4,19.1,27.2,19z
		 M21.5,8C22,7.1,23,6.8,23.8,7.3c0.8,0.4,1.1,1.4,0.7,2.3c-0.4,0.8-1.4,1.1-2.3,0.7C21.4,9.8,21.1,8.8,21.5,8z M12.6,10.8L24.2,17
		l-1,1.9l-11.7-6.2L12.6,10.8z M18.3,28.2L6.6,22l1-1.9l11.7,6.2L18.3,28.2z M22.8,26.6L8.2,18.9l1-1.9l14.5,7.7L22.8,26.6z
		 M24.4,23.4l-9.7-5.2l1-1.9l9.7,5.2L24.4,23.4z"/>
	<path class="st0" d="M19.4,32.8l-0.7-0.4h-4.6l3.2,1.7c1.4,0.7,3.1,0.2,3.9-1.2l0.3-0.5h-1.8L19.4,32.8z"/>
	<path class="st0" d="M26.7,10.7C26.7,10.7,26.7,10.7,26.7,10.7C26.7,10.6,26.7,10.6,26.7,10.7C26.7,10.7,26.7,10.7,26.7,10.7z"/>
	<path class="st0" d="M28.5,11.6C28.5,11.6,28.5,11.6,28.5,11.6l-1.8-1c0,0,0,0,0,0L28.5,11.6z"/>
	<path class="st0" d="M36.2,8.3c0.2,0.3,0.4,0.6,0.6,0.9C36.8,8.9,36.5,8.5,36.2,8.3z"/>
	<path class="st0" d="M32.6,7.3c-0.1,0-0.1,0-0.2,0c0.3,0.2,0.5,0.5,0.7,0.8l2.6,0.7c0.2,0.1,0.3,0.2,0.4,0.3
		c0.1,0.2,0.1,0.3,0.1,0.5l-0.3,1c0,0.1,0,0.2,0,0.3c0,0,0,0,0,0c0.1,0.3,0.2,0.5,0.3,0.8c0.1,0.4,0.2,0.9,0.2,1.4
		c0.2,0.4,0.3,0.8,0.5,1.3c0.3-1.2,0.3-2.5-0.3-3.7l0.2-0.9c0-0.2,0-0.4,0-0.5c-0.2-0.3-0.4-0.6-0.6-0.9c-0.1-0.1-0.2-0.1-0.4-0.2
		L32.6,7.3z"/>
	<path class="st0" d="M31.6,7.4c-0.6,0.3-1.2,0.7-1.8,1.2c-0.4,0.3-0.9,0.5-1.4,0.5c-0.4,0.1-0.8,0.2-1.2,0.3
		c-0.5,0.1-0.8,0.5-1,0.9l0.6,0.3c0.1-0.3,0.4-0.5,0.7-0.6c0.6-0.2,1.2-0.3,1.8-0.4c0.3-0.1,0.5-0.2,0.8-0.3
		c0.1-0.1,0.2-0.1,0.3-0.2c0.5-0.4,1.1-0.8,1.7-1.1c0.2-0.1,0.3-0.1,0.5-0.1L33.1,8c-0.2-0.3-0.5-0.5-0.7-0.8
		C32.1,7.2,31.8,7.3,31.6,7.4z"/>
	<path class="st0" d="M30.7,13.4c0.1-0.3,0.1-0.7,0-1c-0.2-0.4-0.5-0.8-1-0.9c-0.3-0.1-0.6-0.1-0.9-0.1c-0.1,0-0.2,0-0.2,0l0.2,0.1
		c0.1,0,0.1,0.1,0.2,0.1l0.1,0.1c0.2,0.1,0.3,0.2,0.5,0.3c0,0,0,0,0,0c0.4,0.2,0.4,0.3,0.5,0.4c0,0,0,0.1,0,0.1
		c0.2,0.3,0.4,0.7,0.5,1C30.6,13.7,30.7,13.6,30.7,13.4z"/>
	<path class="st0" d="M36.3,14.1c-0.1,0.2-0.1,0.4-0.2,0.6c-0.6,1.5-1.8,2.6-3.3,3.2c-0.7,0.3-1.4,0.6-2.2,0.9
		c-0.2,0.1-0.4,0.1-0.6,0c-0.1,0-0.2-0.1-0.3-0.1c-0.1,0-0.1-0.1-0.2-0.1c-0.1,0-0.3,0-0.4,0c-0.3,0.1-0.4,0.1-0.4,0.1c0,0,0,0,0,0
		l-0.4,0.7c0.2,0,0.4,0,0.6-0.1c0.1,0,0.2-0.1,0.4-0.1c0.1,0.1,0.3,0.2,0.5,0.2c0.3,0.1,0.7,0.1,1-0.1c0.8-0.3,1.5-0.6,2.2-0.9
		c1.6-0.7,2.9-1.9,3.6-3.5c0.1-0.2,0.1-0.4,0.1-0.5c-0.1-0.4-0.3-0.9-0.5-1.3C36.4,13.4,36.3,13.8,36.3,14.1z"/>
	<path class="st0" d="M28.5,15.8l0.2-0.4l-0.4-0.2c0,0-0.1,0.1-0.1,0.1c-0.6,0.3-1.7,0.8-2.3,1l0.8,0.4C27.2,16.4,28,16.1,28.5,15.8
		C28.5,15.8,28.5,15.8,28.5,15.8z"/>
	<path class="st0" d="M29,11.9c0.2,0.1,0.4,0.2,0.6,0.4c-0.1-0.1-0.3-0.2-0.5-0.3L29,11.9z"/>
	<path class="st0" d="M28.1,18.7c-0.1,0-0.3-0.1-0.4-0.2c-0.1-0.1-0.2-0.1-0.3-0.2c-0.1,0-0.3,0-0.4,0c-0.1,0-0.1,0.1-0.2,0.1
		c-0.2,0.1-0.3,0.1-0.3,0.1c-0.2,0.1-0.4,0.1-0.6,0c-0.3-0.1-0.6-0.3-0.7-0.7c0-0.1-0.1-0.2-0.1-0.3v0c0-0.1,0-0.1,0-0.2
		c0.1-0.2,0.2-0.3,0.4-0.4c0,0,0,0,0,0c0.1,0,0.5-0.2,0.9-0.4l-0.8-0.4c-0.2,0.1-0.4,0.1-0.4,0.2c0,0-0.1,0-0.1,0
		c-0.5,0.2-0.9,0.8-0.8,1.4c0.1,0.7,0.6,1.2,1.2,1.4c0.3,0.1,0.7,0.1,1-0.1c0.2-0.1,0.3-0.1,0.5-0.2c0.2,0.2,0.4,0.3,0.7,0.4
		c0.1,0,0.3,0,0.4,0l0.4-0.7C28.5,18.8,28.3,18.8,28.1,18.7z"/>
	<path class="st0" d="M28.5,15.8c0.9-0.4,1.6-1.1,2-1.9c-0.1-0.4-0.2-0.7-0.5-1c0.2,1-1.1,2-1.8,2.3l0.4,0.2L28.5,15.8z"/>
	<path class="st0" d="M36.2,9.5l-0.3,1c0,0.1,0,0.3,0,0.4c0-0.1,0-0.2,0-0.3L36.2,9.5c0.1-0.1,0-0.3-0.1-0.5
		C36.2,9.2,36.2,9.4,36.2,9.5z"/>
	<path class="st0" d="M36.4,13.1c0-0.5,0-0.9-0.2-1.4C36.3,12.1,36.4,12.6,36.4,13.1C36.4,13.1,36.4,13.1,36.4,13.1z"/>
	<path class="st0" d="M29.1,9.6c0.3-0.1,0.5-0.2,0.8-0.3C29.6,9.4,29.4,9.5,29.1,9.6z"/>
	<path class="st0" d="M36.3,14c0,0.2-0.1,0.4-0.2,0.6c0,0,0,0,0,0c0,0,0,0,0,0c0,0,0,0,0,0c-0.6,1.5-1.8,2.6-3.3,3.2
		c-0.7,0.3-1.4,0.6-2.2,0.9c-0.2,0.1-0.4,0.1-0.6,0c-0.1,0-0.2-0.1-0.3-0.1c-0.1,0-0.1-0.1-0.2-0.1c-0.1,0-0.3,0-0.4,0
		c-0.2,0.1-0.4,0.1-0.4,0.1l0,0.1c0,0,0,0,0,0c0,0,0.2-0.1,0.4-0.1c0.1,0,0.3,0,0.4,0c0.1,0,0.1,0,0.2,0.1c0.1,0.1,0.2,0.1,0.3,0.1
		c0.2,0.1,0.4,0,0.6,0c0.7-0.2,1.5-0.5,2.2-0.9c1.5-0.6,2.6-1.7,3.3-3.2C36.2,14.5,36.2,14.3,36.3,14c0.1-0.3,0.1-0.6,0.1-1
		c0,0,0,0,0,0C36.4,13.4,36.3,13.7,36.3,14z"/>
	<path class="st0" d="M29.7,11.6c0.5,0.1,0.8,0.4,1,0.9c0,0,0,0,0,0C30.5,12,30.2,11.7,29.7,11.6c-0.3-0.1-0.6-0.1-1-0.1
		c-0.2,0-0.2,0-0.3,0l0.1,0c0.1,0,0.1,0,0.2,0C29.1,11.5,29.4,11.5,29.7,11.6z"/>
	<path class="st0" d="M28.7,18.6c-0.2,0.1-0.4,0.1-0.6,0c-0.2,0-0.3-0.1-0.4-0.2c-0.1-0.1-0.2-0.1-0.3-0.2c-0.1,0-0.3,0-0.4,0
		c-0.1,0-0.1,0.1-0.2,0.1c-0.2,0.1-0.3,0.1-0.3,0.1c-0.2,0.1-0.4,0.1-0.6,0c-0.3-0.1-0.5-0.3-0.6-0.6c0.1,0.3,0.3,0.6,0.7,0.7
		c0.2,0.1,0.4,0,0.6,0c0,0,0.1,0,0.3-0.1c0.1,0,0.1,0,0.2-0.1c0.1,0,0.3,0,0.4,0c0.1,0,0.2,0.1,0.3,0.2c0.1,0.1,0.3,0.2,0.4,0.2
		C28.3,18.8,28.5,18.8,28.7,18.6L28.7,18.6C28.8,18.6,28.7,18.6,28.7,18.6z"/>
</g>
</svg>
