<?xml version="1.0" encoding="utf-8"?>
<!-- Generator: Adobe Illustrator 21.1.0, SVG Export Plug-In . SVG Version: 6.00 Build 0)  -->
<svg version="1.1" id="Layer_1" xmlns="http://www.w3.org/2000/svg" xmlns:xlink="http://www.w3.org/1999/xlink" x="0px" y="0px"
	 viewBox="0 0 40 40" style="enable-background:new 0 0 40 40;" xml:space="preserve">
<style type="text/css">
	.st0{fill:#FAFAFA;}
	.st1{fill:#FFFFFF;}
</style>
<g>
	<path class="st0" d="M20.1,10.2C19.9,10,19.7,10,19.6,10c-0.2,0-0.4,0.1-0.5,0.2c0,0-2.4,2.7-4.7,6.1c-3.2,4.5-4.7,8-4.7,10.4
		c0.2,5.7,4.9,10.2,10.6,10l0,0c5.7-0.2,10.2-4.9,10-10.6c0-2.4-1.8-5.8-5.2-10.1C23.5,13.9,21.8,12,20.1,10.2z M27,28.9
		c0.1,3.9-3,7.1-6.8,7.2c-3.9,0.1-7.1-3-7.2-6.8c0-1.6,1-4,3.2-7c1.6-2.2,3.2-4.1,3.2-4.1c0.1-0.1,0.2-0.1,0.3-0.1
		c0.1,0,0.2,0,0.3,0.1c1.2,1.2,2.3,2.5,3.4,3.9C25.8,24.9,27,27.2,27,28.9C27,28.9,27,28.9,27,28.9z"/>
	<path class="st0" d="M20,0C9,0,0,9,0,20c0,11,9,20,20,20c11,0,20-9,20-20C40,9,31,0,20,0z M33.4,23.5c0.1,7.3-5.6,13.3-12.8,13.6
		c-7.4,0.3-13.7-5.4-14-12.8c-0.1-3.1,2-7.6,6.1-13.5c3-4.3,6.1-7.8,6.1-7.9c0.2-0.2,0.4-0.3,0.6-0.3c0.2,0,0.5,0.1,0.6,0.2
		c2.3,2.4,4.5,4.9,6.6,7.5C31.1,16,33.4,20.4,33.4,23.5L33.4,23.5z"/>
	<path class="st1" d="M21.5,32.2c-0.6,0.1-1.1,0.2-1.7,0.2c-0.6,0-1.1,0.3-1.5,0.8c-0.1,0.1-0.2,0.3-0.2,0.5c0,0.6,0.8,0.9,1.4,0.9
		c2.5,0,4.5-2.1,4.5-4.5l-0.5,0.4C23.2,31.3,22.5,32,21.5,32.2z"/>
</g>
</svg>
