<svg xmlns="http://www.w3.org/2000/svg" xmlns:xlink="http://www.w3.org/1999/xlink" viewBox="1417.517 -5411.72 38.966 38.966">
  <defs>
    <style>
      .cls-1 {
        fill: #fafafa;
      }

      .cls-2 {
        fill: #412413;
      }

      .cls-3 {
        filter: url(#path);
      }
    </style>
    <filter id="path" x="1417.517" y="-5411.72" width="38.966" height="38.966" filterUnits="userSpaceOnUse">
      <feOffset dy="3" input="SourceAlpha"/>
      <feGaussianBlur stdDeviation="3" result="blur"/>
      <feFlood flood-opacity="0.161"/>
      <feComposite operator="in" in2="blur"/>
      <feComposite in="SourceGraphic"/>
    </filter>
  </defs>
  <g id="group-117" transform="translate(1425 -5407.272)">
    <g id="group-116" transform="translate(0 0)">
      <circle id="ellipse" class="cls-1" cx="12" cy="12" r="12" transform="translate(0)"/>
      <g class="cls-3" transform="matrix(1, 0, 0, 1, -1425, 5407.27)">
        <path id="path-2" data-name="path" class="cls-2" d="M202.423,263.25a10.483,10.483,0,1,0,10.483,10.483A10.483,10.483,0,0,0,202.423,263.25Zm-4.889,12.46a1.8,1.8,0,1,1,1.8-1.8A1.8,1.8,0,0,1,197.534,275.71Zm.221,5.809a2.273,2.273,0,1,1,2.273-2.273,2.273,2.273,0,0,1-2.273,2.273Zm3.789-3.157a1.073,1.073,0,1,1,1.073-1.073,1.073,1.073,0,0,1-1.073,1.073Zm-2.943-8.822a3.82,3.82,0,1,1,3.822,3.821,3.82,3.82,0,0,1-3.822-3.821Zm8.771,10.906a4.01,4.01,0,1,1,4.01-4.01,4.01,4.01,0,0,1-4.01,4.01Z" transform="translate(1234.58 -5668.97)"/>
      </g>
    </g>
  </g>
</svg>
