<svg xmlns="http://www.w3.org/2000/svg" viewBox="1395 -6845 40 40">
  <defs>
    <style>
      .cls-1 {
        fill: #412413;
      }
    </style>
  </defs>
  <g id="Group_2788" data-name="Group 2788" transform="translate(104 2710)">
    <path id="Path_5021" data-name="Path 5021" class="cls-1" d="M20,40A20,20,0,1,1,40,20,19.94,19.94,0,0,1,20,40ZM20,3.866A16.134,16.134,0,1,0,36.134,20,16.139,16.139,0,0,0,20,3.866Z" transform="translate(1291 -9555)"/>
    <path id="Path_5022" data-name="Path 5022" class="cls-1" d="M7.074,8.9s-.672,1.513-.336,2.185a.958.958,0,0,0,1.849-.5C8.419,9.908,7.074,8.9,7.074,8.9Zm.168,2.017c0,.168.168.5.336.5-.336,0-.5-.336-.672-.5-.168-.336.168-.84.168-1.513C7.242,9.74,7.074,10.581,7.242,10.917Z" transform="translate(1295.522 -9548.942)"/>
    <path id="Path_5023" data-name="Path 5023" class="cls-1" d="M8.2,6.8a6.713,6.713,0,0,0,.336,2.185,1.064,1.064,0,0,0,1.513.168,1.251,1.251,0,0,0,.168-1.513A5.617,5.617,0,0,0,8.2,6.8Zm.84,1.849c.168.168.336.336.5.336a.739.739,0,0,1-.84-.168c-.168-.336-.168-1.008-.336-1.513C8.536,7.472,8.7,8.313,9.04,8.649Z" transform="translate(1296.582 -9550.371)"/>
    <path id="Path_5024" data-name="Path 5024" class="cls-1" d="M9.115,10s-.5,1.513-.168,2.185a.929.929,0,0,0,1.345.5.929.929,0,0,0,.5-1.345C10.627,10.84,9.115,10,9.115,10Zm.336,2.017c0,.168.168.336.336.5-.336,0-.5-.336-.672-.5A2.483,2.483,0,0,1,9.283,10.5,5.185,5.185,0,0,0,9.451,12.017Z" transform="translate(1297.011 -9548.193)"/>
    <path id="Path_5025" data-name="Path 5025" class="cls-1" d="M14.171,24.967s-4.034-.672-5.546-3.866A8.355,8.355,0,0,0,5.6,16.9a11.228,11.228,0,0,1,5.714,4.034C12.659,22.278,13.331,24.127,14.171,24.967Z" transform="translate(1294.812 -9543.497)"/>
    <path id="Path_5026" data-name="Path 5026" class="cls-1" d="M14,23.287S12.318,18.581,6.1,16.9c0,0,4.2.168,6.218,1.681C13.159,19.085,14.335,20.6,14,23.287Z" transform="translate(1295.152 -9543.497)"/>
    <path id="Path_5027" data-name="Path 5027" class="cls-1" d="M13.2,23.346a6.038,6.038,0,0,0,3.866-2.689A6.327,6.327,0,0,1,19.082,17.8a7.632,7.632,0,0,0-4.034,2.689A21.093,21.093,0,0,1,13.2,23.346Z" transform="translate(1299.985 -9542.884)"/>
    <path id="Path_5028" data-name="Path 5028" class="cls-1" d="M13.5,21a7.189,7.189,0,0,1,5.042-3.193,8.677,8.677,0,0,0-3.7.5C14.172,18.648,13.5,19.32,13.5,21Z" transform="translate(1300.189 -9542.892)"/>
    <path id="Path_5029" data-name="Path 5029" class="cls-1" d="M10.9,6.6a6.81,6.81,0,0,0,.5,2.017.875.875,0,0,0,1.345,0,.875.875,0,0,0,0-1.345C12.581,6.768,10.9,6.6,10.9,6.6Zm1.008,1.681c.168.168.336.336.5.336a.739.739,0,0,1-.84-.168,7.814,7.814,0,0,1-.5-1.513C11.4,7.272,11.572,7.945,11.908,8.281Z" transform="translate(1298.419 -9550.507)"/>
    <path id="Path_5030" data-name="Path 5030" class="cls-1" d="M9.7,8.5a6.81,6.81,0,0,0,.5,2.017.875.875,0,0,0,1.345,0,.875.875,0,0,0,0-1.345C11.213,8.668,9.7,8.5,9.7,8.5Zm1.008,1.681c.168.168.336.336.5.336a.739.739,0,0,1-.84-.168c-.336-.336-.336-1.008-.5-1.513A5.9,5.9,0,0,0,10.708,10.181Z" transform="translate(1297.603 -9549.214)"/>
    <path id="Path_5031" data-name="Path 5031" class="cls-1" d="M4,11.167l3.025,1.008,1.681-1.513L8.2,8.814,10.555,6.8l1.681,1.176L14.42,6.125,13.58,3.1S6.353,5.117,4,11.167Z" transform="translate(1293.723 -9552.89)"/>
    <path id="Path_5032" data-name="Path 5032" class="cls-1" d="M15.019,6.4A4.551,4.551,0,0,0,13,7.072a1.022,1.022,0,0,0,0,1.345,1.022,1.022,0,0,0,1.345,0C15.019,7.913,15.019,6.4,15.019,6.4ZM13.506,7.576c-.168,0-.336.336-.336.5a.739.739,0,0,1,.168-.84c.168-.336.84-.336,1.345-.5A1.739,1.739,0,0,0,13.506,7.576Z" transform="translate(1299.679 -9550.645)"/>
    <path id="Path_5033" data-name="Path 5033" class="cls-1" d="M17.212,7.3a5.617,5.617,0,0,0-2.017.84.876.876,0,0,0,.168,1.345.876.876,0,0,0,1.345-.168C17.212,8.981,17.212,7.3,17.212,7.3ZM15.7,8.645c-.168.168-.336.336-.336.5a.739.739,0,0,1,.168-.84c.168-.336.84-.336,1.345-.672C16.707,7.8,15.867,8.14,15.7,8.645Z" transform="translate(1301.183 -9550.031)"/>
    <path id="Path_5034" data-name="Path 5034" class="cls-1" d="M15.712,8.7a5.617,5.617,0,0,0-2.017.84.876.876,0,0,0,.168,1.345.876.876,0,0,0,1.345-.168A5.811,5.811,0,0,0,15.712,8.7ZM14.031,9.876c-.168.168-.336.336-.336.5a.739.739,0,0,1,.168-.84c.168-.336.84-.336,1.345-.672C15.039,9.2,14.367,9.54,14.031,9.876Z" transform="translate(1300.162 -9549.078)"/>
    <path id="Path_5035" data-name="Path 5035" class="cls-1" d="M13.987,10.6a5.17,5.17,0,0,0-1.513.672.84.84,0,1,0,1.345,1.008A6.962,6.962,0,0,0,13.987,10.6ZM12.81,11.608c0,.168-.168.336-.168.5-.168-.336,0-.5,0-.672a5.6,5.6,0,0,1,1.008-.5C13.483,11.1,12.978,11.44,12.81,11.608Z" transform="translate(1299.366 -9547.784)"/>
    <path id="Path_5036" data-name="Path 5036" class="cls-1" d="M13.406,8.6a4.691,4.691,0,0,0-1.681,1.345,1.015,1.015,0,0,0,1.849.84C13.91,10.113,13.406,8.6,13.406,8.6ZM12.23,10.281v.5a.852.852,0,0,1-.168-.84c.168-.336.672-.672,1.008-1.008C13.07,9.272,12.4,9.776,12.23,10.281Z" transform="translate(1298.938 -9549.146)"/>
    <path id="Path_5037" data-name="Path 5037" class="cls-1" d="M11.581,10.9s-.84,1.176-.672,1.849a.928.928,0,0,0,1.849-.168C12.758,11.908,11.581,10.9,11.581,10.9Zm-.168,1.849a1.693,1.693,0,0,0,.168.5c-.336-.168-.5-.336-.5-.672a6.918,6.918,0,0,1,.5-1.345C11.581,11.572,11.413,12.245,11.413,12.749Z" transform="translate(1298.41 -9547.581)"/>
    <path id="Path_5038" data-name="Path 5038" class="cls-1" d="M15.62,10.7s-1.513.5-1.849,1.008a.98.98,0,1,0,1.681,1.008A4.537,4.537,0,0,0,15.62,10.7Zm-1.513,1.345a.83.83,0,0,0-.168.5.75.75,0,0,1,0-.84c.168-.336.84-.5,1.345-.84A7.764,7.764,0,0,1,14.107,12.045Z" transform="translate(1300.254 -9547.717)"/>
    <path id="Path_5039" data-name="Path 5039" class="cls-1" d="M17.43,9.9s-1.345.84-1.513,1.513a1.063,1.063,0,1,0,2.017.672A10.586,10.586,0,0,0,17.43,9.9Zm-1.176,1.681v.672a.852.852,0,0,1-.168-.84c.168-.336.672-.672,1.008-1.008C17.094,10.572,16.422,11.076,16.254,11.581Z" transform="translate(1301.805 -9548.262)"/>
    <path id="Path_5040" data-name="Path 5040" class="cls-1" d="M14.8,3.4l-.5,3.025L15.981,7.77l1.681-.84,2.353,1.849-.672,2.017,2.185,2.017,2.857-1.345S21.023,4.576,14.8,3.4Z" transform="translate(1300.734 -9552.687)"/>
    <path id="Path_5041" data-name="Path 5041" class="cls-1" d="M13.357,13.6a8.722,8.722,0,0,0-.336,6.387c1.513,5.042-.5,6.218-2.521,7.059l1.513.5s4.2-1.008,2.185-6.218a10.726,10.726,0,0,1-.5-7.563Z" transform="translate(1298.147 -9545.742)"/>
    <path id="Path_5042" data-name="Path 5042" class="cls-1" d="M12.3,17.129a4.179,4.179,0,0,0,3.193-1.513A4.743,4.743,0,0,1,17.51,13.6a6.48,6.48,0,0,0-3.361,1.513C13.476,15.785,12.8,16.625,12.3,17.129Z" transform="translate(1299.372 -9545.742)"/>
    <path id="Path_5043" data-name="Path 5043" class="cls-1" d="M12.7,15.464a5.454,5.454,0,0,1,4.37-1.849,7.1,7.1,0,0,0-3.025-.168A2.706,2.706,0,0,0,12.7,15.464Z" transform="translate(1299.645 -9545.926)"/>
    <path id="Path_5044" data-name="Path 5044" class="cls-1" d="M13.538,18.3a3.9,3.9,0,0,1-2.857-1.681A3.916,3.916,0,0,0,9,14.6a6.576,6.576,0,0,1,3.025,1.681C12.7,16.953,13.034,17.793,13.538,18.3Z" transform="translate(1297.126 -9545.063)"/>
    <path id="Path_5045" data-name="Path 5045" class="cls-1" d="M12.9,16.661a4.514,4.514,0,0,0-3.7-2.017,5.134,5.134,0,0,1,2.689.168C12.393,14.981,12.9,15.485,12.9,16.661Z" transform="translate(1297.262 -9545.107)"/>
  </g>
</svg>
